<?xml version="1.0" encoding="UTF-8" standalone="no"?>
<!-- Created with Inkscape (http://www.inkscape.org/) -->

<svg
   xmlns:dc="http://purl.org/dc/elements/1.1/"
   xmlns:cc="http://creativecommons.org/ns#"
   xmlns:rdf="http://www.w3.org/1999/02/22-rdf-syntax-ns#"
   xmlns:svg="http://www.w3.org/2000/svg"
   xmlns="http://www.w3.org/2000/svg"
   xmlns:sodipodi="http://sodipodi.sourceforge.net/DTD/sodipodi-0.dtd"
   xmlns:inkscape="http://www.inkscape.org/namespaces/inkscape"
   id="svg2"
   version="1.1"
   inkscape:version="0.91 r13725"
   xml:space="preserve"
   width="3.6949477in"
   height="10.160556in"
   viewBox="0 0 332.54529 914.45003"
   sodipodi:docname="only_natasha.svg"><metadata
     id="metadata8"><rdf:RDF><cc:Work
         rdf:about=""><dc:format>image/svg+xml</dc:format><dc:type
           rdf:resource="http://purl.org/dc/dcmitype/StillImage" /><dc:title /></cc:Work></rdf:RDF></metadata><defs
     id="defs6" /><sodipodi:namedview
     pagecolor="#ffffff"
     bordercolor="#666666"
     borderopacity="1"
     objecttolerance="10"
     gridtolerance="10"
     guidetolerance="10"
     inkscape:pageopacity="0"
     inkscape:pageshadow="2"
     inkscape:window-width="1916"
     inkscape:window-height="1155"
     id="namedview4"
     showgrid="false"
     inkscape:zoom="3.3185205"
     inkscape:cx="387.59662"
     inkscape:cy="839.92286"
     inkscape:window-x="4"
     inkscape:window-y="1"
     inkscape:window-maximized="1"
     inkscape:current-layer="g12"
     units="in"
     fit-margin-top="0"
     fit-margin-left="0"
     fit-margin-right="0"
     fit-margin-bottom="0"><inkscape:grid
       type="xygrid"
       id="grid4195"
       originx="-231.27208"
       originy="-29.563893" /></sodipodi:namedview><g
     id="g10"
     inkscape:groupmode="layer"
     inkscape:label="ink_ext_XXXXXX"
     transform="matrix(1.25,0,0,-1.25,-231.27207,944.01389)"><g
       id="g12"
       transform="scale(0.102249,0.102249)"><path
         d="m 2932.47,3773.6 19.67,0 0,292.1 -19.67,0 -7.13,-38.98 7.13,-253.12"
         style="fill:#854e2d;fill-opacity:1;fill-rule:nonzero;stroke:none"
         id="path130"
         inkscape:connector-curvature="0" /><path
         d="m 2913.24,3773.6 19.668,0 0,292.102 -19.668,0 0,-292.102 z"
         style="fill:#995837;fill-opacity:1;fill-rule:nonzero;stroke:none"
         id="path132"
         inkscape:connector-curvature="0" /><path
         d="m 2625.75,4187.82 c -0.05,1.78 -0.09,3.56 -0.09,5.34 0,67.76 41.95,126.8 104.09,157.94 -0.04,1.29 -0.11,2.58 -0.11,3.88 0,68.23 42.52,127.65 105.37,158.61 14.4,38.61 52.7,66.23 97.67,66.23 l 0,0 42.61,-284.02 -42.61,-259.7 0,0 c -30.11,-15.44 -65.05,-24.33 -102.35,-24.33 -29.16,0 -56.9,5.43 -82.01,15.16 -15.93,-9.59 -34.73,-15.16 -54.9,-15.16 -57.31,0 -103.79,44.85 -103.79,100.15 0,30.36 14.02,57.54 36.12,75.9"
         style="fill:#67c530;fill-opacity:1;fill-rule:nonzero;stroke:none"
         id="path134"
         inkscape:connector-curvature="0" /><path
         d="m 3029.6,4515.54 c 65.04,-30.38 109.4,-90.87 109.4,-160.56 0,-1.85 -0.09,-3.68 -0.16,-5.52 60.36,-31.54 100.88,-89.71 100.88,-156.3 0,-1.78 -0.04,-3.56 -0.11,-5.34 22.12,-18.36 36.13,-45.54 36.13,-75.9 0,-55.3 -46.48,-100.15 -103.8,-100.15 -20.16,0 -38.96,5.57 -54.9,15.16 -25.11,-9.73 -52.84,-15.16 -82.01,-15.16 -37.3,0 -72.24,8.87 -102.35,24.33 l 0,543.72 c 44.21,0 81.95,-26.69 96.92,-64.28"
         style="fill:#5ec233;fill-opacity:1;fill-rule:nonzero;stroke:none"
         id="path136"
         inkscape:connector-curvature="0" /><path
         d="m 3717.54,3360.36 19.68,0 0,292.11 -19.68,0 -7.11,-38.97 7.11,-253.14"
         style="fill:#854e2d;fill-opacity:1;fill-rule:nonzero;stroke:none"
         id="path138"
         inkscape:connector-curvature="0" /><path
         d="m 3698.3,3360.36 19.6797,0 0,292.109 -19.6797,0 0,-292.109 z"
         style="fill:#995837;fill-opacity:1;fill-rule:nonzero;stroke:none"
         id="path140"
         inkscape:connector-curvature="0" /><path
         d="m 3104.43,3130.79 -19.58,0 0,430.84 19.58,0 7.09,-57.47 -7.09,-373.37"
         style="fill:#995837;fill-opacity:1;fill-rule:nonzero;stroke:none"
         id="path174"
         inkscape:connector-curvature="0" /><path
         d="m 3104,3130.79 19.5781,0 0,430.84 -19.5781,0 0,-430.84 z"
         style="fill:#854e2d;fill-opacity:1;fill-rule:nonzero;stroke:none"
         id="path176"
         inkscape:connector-curvature="0" /><path
         d="m 2918.6,3696.55 c 0,-87.18 83.09,-157.86 185.6,-157.86 l 43.87,138.3 -43.87,321.97 c -102.51,0 -185.6,-215.21 -185.6,-302.41"
         style="fill:#67c530;fill-opacity:1;fill-rule:nonzero;stroke:none"
         id="path178"
         inkscape:connector-curvature="0" /><path
         d="m 3104.2,3998.96 0,-460.27 c 102.53,0 185.62,70.68 185.62,157.86 0,87.2 -83.09,302.41 -185.62,302.41"
         style="fill:#5ec233;fill-opacity:1;fill-rule:nonzero;stroke:none"
         id="path180"
         inkscape:connector-curvature="0" /><path
         d="m 3234.56,4064.48 50.36,-355.34 -38.79,20.6 -11.57,334.74"
         style="fill:#f79319;fill-opacity:1;fill-rule:nonzero;stroke:none"
         id="path432"
         inkscape:connector-curvature="0" /><path
         d="m 3296.16,3705.27 14.67,-27.03 -4.85,-24.18 -454.37,116.43 444.55,-65.22"
         style="fill:#f79319;fill-opacity:1;fill-rule:nonzero;stroke:none"
         id="path434"
         inkscape:connector-curvature="0" /><path
         d="m 2982.5,3981.89 624.9,-534.7 -47.64,-51.12 -577.26,585.82"
         style="fill:#f79319;fill-opacity:1;fill-rule:nonzero;stroke:none"
         id="path436"
         inkscape:connector-curvature="0" /><path
         d="m 3358.47,4439.54 225.62,-279.11 11.38,42.41 -237,236.7"
         style="fill:#f79319;fill-opacity:1;fill-rule:nonzero;stroke:none"
         id="path438"
         inkscape:connector-curvature="0" /><path
         d="m 3590.76,1905.26 -113.2,0 113.2,2662.35 21.93,-1473.6 -21.93,-1188.75"
         style="fill:#f79319;fill-opacity:1;fill-rule:nonzero;stroke:none"
         id="path442"
         inkscape:connector-curvature="0" /><path
         d="m 3590.76,1905.26 113.19,0 -113.19,2662.35 0,-2662.35"
         style="fill:#f08f16;fill-opacity:1;fill-rule:nonzero;stroke:none"
         id="path444"
         inkscape:connector-curvature="0" /><path
         d="m 3491.18,4849.86 c -0.07,0.01 -0.22,0.04 -0.22,0.04 0,0 -1.64,-137.32 -16.6,-241.75 -14.23,-99.38 106.25,-117.32 117.94,-118.83 5.36,73.87 36.02,137.55 24.39,188.33 -19.38,84.64 -92.18,137.55 -125.51,172.21"
         style="fill:#48bc39;fill-opacity:1;fill-rule:nonzero;stroke:none"
         id="path446"
         inkscape:connector-curvature="0" /><path
         d="m 3188,4523.86 c -0.05,-0.02 -0.16,-0.08 -0.16,-0.08 0,0 69.69,-83.69 114.42,-154.39 42.58,-67.28 124.49,-16.1 132.32,-10.99 -34.79,47.32 -49.08,101.51 -82.22,126.17 -55.26,41.07 -126.41,35.53 -164.36,39.29"
         style="fill:#3eb83d;fill-opacity:1;fill-rule:nonzero;stroke:none"
         id="path454"
         inkscape:connector-curvature="0" /><path
         d="m 3188,4523.86 c 60.73,-6.02 153.8,-39.26 246.58,-165.46 0.4,0.26 0.65,0.44 0.65,0.44 0,0 38.93,141.32 -46.34,186.3 -84.05,44.34 -197.65,-19.43 -200.89,-21.28"
         style="fill:#48bc39;fill-opacity:1;fill-rule:nonzero;stroke:none"
         id="path456"
         inkscape:connector-curvature="0" /><path
         d="m 4018.15,4448.62 c -0.04,0.03 -0.13,0.08 -0.13,0.08 0,0 -33.94,-103.49 -70.11,-178.93 -34.42,-71.79 52.44,-114.04 60.92,-117.95 21.65,54.6 59.99,95.47 63.29,136.64 5.47,68.64 -36.99,126 -53.97,160.16"
         style="fill:#3eb83d;fill-opacity:1;fill-rule:nonzero;stroke:none"
         id="path472"
         inkscape:connector-curvature="0" /><path
         d="m 2846.38,4245.13 c 0.04,0.05 0.12,0.19 0.12,0.19 0,0 101.56,-92.43 188.16,-152.69 82.39,-57.36 13.38,-157.72 6.51,-167.3 -57.69,46.44 -125.19,67.43 -154.4,110.55 -48.68,71.9 -37.75,161.23 -40.39,209.25"
         style="fill:#48bc39;fill-opacity:1;fill-rule:nonzero;stroke:none"
         id="path476"
         inkscape:connector-curvature="0" /><path
         d="m 2846.38,4245.13 c 4.23,-76.84 40.95,-195.93 194.79,-319.8 -0.34,-0.49 -0.61,-0.81 -0.61,-0.81 0,0 -180.15,-41.22 -232.11,68.71 -51.22,108.34 35.43,247.91 37.93,251.9"
         style="fill:#3eb83d;fill-opacity:1;fill-rule:nonzero;stroke:none"
         id="path478"
         inkscape:connector-curvature="0" /><path
         d="m 2661.71,3893.91 c 0,0.07 -0.01,0.21 -0.01,0.21 0,0 135.94,-19.58 241.41,-20.93 100.4,-1.29 99.53,-123.1 99.19,-134.86 -73.8,6.1 -141.44,-14.36 -189.83,4.97 -80.62,32.22 -121.65,112.32 -150.76,150.61"
         style="fill:#48bc39;fill-opacity:1;fill-rule:nonzero;stroke:none"
         id="path480"
         inkscape:connector-curvature="0" /><path
         d="m 2661.71,3893.91 c 46.58,-61.25 143.75,-139.29 340.59,-155.58 -0.01,-0.6 -0.03,-1.01 -0.03,-1.01 0,0 -126.09,-135.15 -230.73,-73.26 -103.15,61.01 -109.67,225.14 -109.83,229.85"
         style="fill:#3eb83d;fill-opacity:1;fill-rule:nonzero;stroke:none"
         id="path482"
         inkscape:connector-curvature="0" /><path
         d="m 3291.58,4244.63 c 0.04,0.02 0.15,0.06 0.15,0.06 0,0 13.7,-108.05 34.92,-188.98 20.2,-77.02 -73.1,-102.03 -82.17,-104.28 -10.89,57.73 -40.81,105.12 -36.24,146.18 7.62,68.43 60.21,116.69 83.34,147.02"
         style="fill:#3eb83d;fill-opacity:1;fill-rule:nonzero;stroke:none"
         id="path484"
         inkscape:connector-curvature="0" /><path
         d="m 3291.58,4244.63 c -37.02,-48.53 -76.16,-139.28 -47.1,-293.2 -0.45,-0.11 -0.78,-0.18 -0.78,-0.18 0,0 -129.9,67.88 -104.66,160.94 24.87,91.71 148.98,131.32 152.54,132.44"
         style="fill:#48bc39;fill-opacity:1;fill-rule:nonzero;stroke:none"
         id="path486"
         inkscape:connector-curvature="0" /><path
         d="m 2640.76,1611.41 955.56,0 103.17,145.72 -103.17,189.53 c -477.21,0 -874.02,-144.64 -955.56,-335.25"
         style="fill:#64341e;fill-opacity:1;fill-rule:nonzero;stroke:none"
         id="path488"
         inkscape:connector-curvature="0" /><path
         d="m 1838.14,4931.28 520.36,699.65 c 56.38,88.5 167.86,140.71 287.45,124.22 158.89,-21.86 271.58,-156.67 251.82,-301.17 -15.56,-113.16 -83.13,-168.65 -200.32,-155.69 -116.86,12.86 -252.84,-72.67 -282.37,-108.39 l -341.56,-430.27 c -48.91,-65.29 -141.35,-78.66 -206.53,-29.7 -63.42,47.62 -76.4,137.76 -28.85,201.35"
         style="fill:#f1f1f1;fill-opacity:1;fill-rule:nonzero;stroke:none"
         id="path552"
         inkscape:connector-curvature="0" /><path
         d="m 2684.41,5483.39 c -5.59,-41.12 -43.47,-69.85 -84.44,-64.24 -41.1,5.69 -69.79,43.58 -64.13,84.68 5.62,41.13 43.44,69.92 84.48,64.22 41.09,-5.57 69.65,-43.55 64.09,-84.66"
         style="fill:#f1f1f1;fill-opacity:1;fill-rule:nonzero;stroke:none"
         id="path554"
         inkscape:connector-curvature="0" /><path
         d="m 3606.61,6641.86 c 0,0 154.23,-201.71 108.77,-394.96 -45.47,-193.27 -179.35,-341.76 -314.59,-432.41 84.04,90.65 137.62,125.35 205.82,222.12 68.17,96.74 163.06,288.1 13.46,507.05 -36.5,104.5 -13.46,98.2 -13.46,98.2"
         style="fill:#562a16;fill-opacity:1;fill-rule:nonzero;stroke:none"
         id="path556"
         inkscape:connector-curvature="0" /><path
         d="m 3128.32,7279.99 c 0,0 -82.21,36.91 -241.25,-25.31 -157.87,-61.75 -336.16,-233.87 -287.85,-571.54 42.91,-299.93 129.13,-848.76 -326.92,-739.1 -0.8,0.19 375.22,-347.98 1119.65,-62.41 288.54,110.72 -155.07,1097.27 -155.07,1097.27 l -108.56,301.09"
         style="fill:#64341e;fill-opacity:1;fill-rule:nonzero;stroke:none"
         id="path558"
         inkscape:connector-curvature="0" /><path
         d="m 3625.99,6653.86 c -55.15,296.73 -36.83,355.94 -189.83,469.91 -154.39,115 -307.78,93.2 -307.78,93.2 l 0.19,-1166.84 c 0,0 133.66,-337.02 134.34,-336.52 242.93,177.62 476.61,328.8 363.08,940.25"
         style="fill:#562a16;fill-opacity:1;fill-rule:nonzero;stroke:none"
         id="path560"
         inkscape:connector-curvature="0" /><path
         d="m 3636.51,6607.85 c 0,0 38.7,-396.35 143.08,-440.47 -51.21,11.03 -118.14,110.42 -135.91,220.21 -17.69,109.86 -7.17,220.26 -7.17,220.26"
         style="fill:#562a16;fill-opacity:1;fill-rule:nonzero;stroke:none"
         id="path562"
         inkscape:connector-curvature="0" /><path
         d="m 3651.58,6362.85 c 0,0 72.19,-210.73 -89.31,-436.54 121.99,268.95 40.86,256.82 55.15,316.41 14.29,59.57 34.16,120.13 34.16,120.13"
         style="fill:#562a16;fill-opacity:1;fill-rule:nonzero;stroke:none"
         id="path564"
         inkscape:connector-curvature="0" /><path
         d="m 2603.52,6653.86 c 0,0 82.31,-357.31 -124.46,-467.58 86.68,21.65 187.12,139.76 163.51,357.38 -23.64,217.68 -39.05,110.2 -39.05,110.2"
         style="fill:#64341e;fill-opacity:1;fill-rule:nonzero;stroke:none"
         id="path566"
         inkscape:connector-curvature="0" /><path
         d="m 2640.13,6344.41 c 0,0 12.3,-372.12 -343.53,-368.86 35.89,-12.49 281.65,-34.83 352.98,240.27 13.41,69.47 -9.45,128.59 -9.45,128.59"
         style="fill:#64341e;fill-opacity:1;fill-rule:nonzero;stroke:none"
         id="path568"
         inkscape:connector-curvature="0" /><path
         d="m 4382.61,4924.93 -521.6,699.66 c -56.51,88.5 -168.26,140.7 -288.14,124.21 -159.25,-21.86 -272.22,-156.66 -252.39,-301.16 15.59,-113.17 83.32,-168.66 200.78,-155.7 117.13,12.87 253.44,-72.66 283.03,-108.38 l 342.39,-430.27 c 49.04,-65.29 141.68,-78.65 207.02,-29.71 63.55,47.62 76.56,137.76 28.91,201.35"
         style="fill:#f1f1f1;fill-opacity:1;fill-rule:nonzero;stroke:none"
         id="path570"
         inkscape:connector-curvature="0" /><path
         d="m 3534.34,5477.04 c 5.6,-41.12 43.57,-69.84 84.62,-64.23 41.2,5.68 69.96,43.57 64.29,84.67 -5.63,41.13 -43.55,69.92 -84.67,64.23 -41.2,-5.57 -69.81,-43.55 -64.24,-84.67"
         style="fill:#f1f1f1;fill-opacity:1;fill-rule:nonzero;stroke:none"
         id="path572"
         inkscape:connector-curvature="0" /><path
         d="m 3128.26,2854.02 114.85,0 0,693.23 -114.85,0 -63.02,-110.29 -11.15,-479.92 74.17,-103.02"
         style="fill:#2c4b74;fill-opacity:1;fill-rule:nonzero;stroke:none"
         id="path574"
         inkscape:connector-curvature="0" /><path
         d="m 3013.5,2854.02 114.762,0 0,693.234 -114.762,0 0,-693.234 z"
         style="fill:#305e93;fill-opacity:1;fill-rule:nonzero;stroke:none"
         id="path576"
         inkscape:connector-curvature="0" /><path
         d="m 2955.39,6077.78 0,-187.53 c 0,-18.04 -12.75,-33.59 -30.48,-37.11 -40.16,-8.03 -180.28,-36.18 -194.86,-74.44 -14.57,-38.32 -8.39,-81.39 16.33,-114.06 64.33,-85.18 271.8,-135.23 378.51,-135.23 l 81.9,286.54 0.11,0 -81.89,261.83 -169.62,0"
         style="fill:#f9ae78;fill-opacity:1;fill-rule:nonzero;stroke:none"
         id="path578"
         inkscape:connector-curvature="0" /><path
         d="m 3503.49,5664.64 c 24.76,32.67 30.85,75.74 16.32,114.06 -14.58,38.26 -154.68,66.41 -194.85,74.44 -17.6,3.52 -30.34,18.99 -30.34,36.92 l 0,187.72 -169.61,0 0,-548.37 c 106.72,0 314.16,50.05 378.48,135.23"
         style="fill:#f8a36d;fill-opacity:1;fill-rule:nonzero;stroke:none"
         id="path580"
         inkscape:connector-curvature="0" /><path
         d="m 2747.17,2281.66 c 1.75,75.74 -5.07,151.46 -20.24,225.36 0,0 -80.61,489.59 -102.59,653.5 -43.88,326.75 -83.37,522.87 -29.11,779.04 l 41.39,195.33 560.22,0 0,-494.95 -71.52,-134.42 c -48.82,0 -56.86,-43.2 -56.86,-96.5 l -31.53,-783.65 c 0,-18.01 1.71,-36 5.05,-53.66 13.65,-71.33 15.21,-144.75 4.74,-216.71 -6.55,-44.3 -8.45,-89.27 -5.7,-134.03 l 10.81,-177.56 c 7.17,-117.8 5.47,-236.05 -5.11,-353.57 l -42.22,-469.22 -172.87,0 -77.06,465.33 c -12.27,74.25 -17.6,149.68 -15.87,225.08 l 8.47,370.63"
         style="fill:#323335;fill-opacity:1;fill-rule:nonzero;stroke:none"
         id="path582"
         inkscape:connector-curvature="0" /><path
         d="m 3503.01,2281.66 c -1.72,75.74 5.12,151.46 20.28,225.36 0,0 73.14,490.77 102.62,653.5 46.66,257.78 43.57,546.86 60.55,779.04 l -72.86,195.33 -488.67,0 0,-629.37 c 48.82,0 56.87,-43.2 56.87,-96.5 l 31.49,-783.65 c 0,-18.01 -1.68,-36 -5.08,-53.66 -13.63,-71.33 -15.2,-144.75 -4.66,-216.71 6.48,-44.3 8.37,-89.27 5.64,-134.03 l -10.79,-177.56 c -7.17,-117.8 -5.47,-236.05 5.11,-353.57 l 42.25,-469.22 172.84,0 77.02,465.33 c 12.3,74.25 17.6,149.68 15.92,225.08 l -8.53,370.63"
         style="fill:#28292a;fill-opacity:1;fill-rule:nonzero;stroke:none"
         id="path584"
         inkscape:connector-curvature="0" /><path
         d="m 3558.1,3161.84 c 0.74,0.26 1.24,0.97 1.24,1.8 0,0.78 -0.46,1.49 -1.22,1.77 l -11,4.21 c -0.73,0.31 -1.21,0.98 -1.21,1.71 0,0.81 0.43,1.48 1.09,1.79 l 9.74,4.49 c 0.85,0.37 1.29,1.23 1.11,2.13 -0.22,0.88 -0.98,1.51 -1.9,1.51 l -235.49,0 c -0.76,0 -1.48,-0.51 -1.76,-1.21 -0.25,-0.74 -0.09,-1.57 0.5,-2.1 l 3.14,-2.91 c 0.52,-0.53 0.78,-1.3 0.52,-1.98 -0.2,-0.7 -0.77,-1.22 -1.53,-1.3 l -18.1,-2.77 c -0.91,-0.15 -1.61,-0.97 -1.58,-1.89 0,-0.99 0.69,-1.75 1.63,-1.9 l 8.03,-1.05 c 0.78,-0.07 1.42,-0.62 1.63,-1.35 0.21,-0.76 -0.05,-1.48 -0.6,-1.99 l -5.66,-4.8 c -0.6,-0.48 -0.82,-1.33 -0.55,-2.09 0.31,-0.73 0.99,-1.23 1.79,-1.23 l 241.86,0 c 0.83,0 1.51,0.59 1.62,1.4 0.13,0.79 -0.43,1.56 -1.21,1.76 -0.67,0.16 -1.21,0.79 -1.21,1.46 -0.07,0.7 0.36,1.36 1.03,1.6 l 8.09,2.94"
         style="fill:#f8a36d;fill-opacity:1;fill-rule:nonzero;stroke:none"
         id="path586"
         inkscape:connector-curvature="0" /><path
         d="m 3451.79,2006.67 c 0.51,0.19 0.87,0.65 0.87,1.21 0,0.52 -0.36,1 -0.87,1.19 l -7.48,2.9 c -0.51,0.17 -0.83,0.65 -0.83,1.17 0,0.52 0.25,0.98 0.74,1.24 l 6.66,3.02 c 0.56,0.25 0.85,0.83 0.74,1.47 -0.17,0.59 -0.68,1.03 -1.28,1.03 l -160.65,0 c -0.53,0 -0.97,-0.37 -1.19,-0.83 -0.18,-0.52 -0.06,-1.09 0.33,-1.44 l 2.15,-1.98 c 0.38,-0.36 0.48,-0.86 0.38,-1.34 -0.18,-0.5 -0.57,-0.88 -1.06,-0.94 l -12.36,-1.84 c -0.6,-0.13 -1.11,-0.66 -1.11,-1.29 0,-0.67 0.51,-1.23 1.17,-1.29 l 5.5,-0.74 c 0.47,-0.05 0.9,-0.43 1.05,-0.91 0.15,-0.51 -0.01,-1.03 -0.38,-1.37 l -3.85,-3.26 c -0.42,-0.34 -0.56,-0.93 -0.38,-1.41 0.19,-0.53 0.64,-0.88 1.2,-0.88 l 165.02,0 c 0.54,0 0.96,0.44 1.05,0.96 0.06,0.57 -0.27,1.09 -0.8,1.21 -0.48,0.12 -0.81,0.54 -0.85,0.98 -0.04,0.48 0.26,0.92 0.74,1.11 l 5.49,2.03"
         style="fill:#f8a36d;fill-opacity:1;fill-rule:nonzero;stroke:none"
         id="path588"
         inkscape:connector-curvature="0" /><path
         d="m 3438.69,1844.05 c 0.54,0.15 0.88,0.65 0.88,1.18 0,0.57 -0.3,1.05 -0.86,1.23 l -7.46,2.87 c -0.54,0.21 -0.87,0.65 -0.87,1.21 0,0.48 0.32,0.98 0.78,1.19 l 6.65,3.05 c 0.53,0.25 0.88,0.85 0.69,1.49 -0.12,0.57 -0.63,0.99 -1.24,0.99 l -160.63,0 c -0.54,0 -1.02,-0.33 -1.2,-0.81 -0.21,-0.5 -0.09,-1.09 0.29,-1.42 l 2.18,-2 c 0.37,-0.33 0.55,-0.87 0.37,-1.32 -0.14,-0.5 -0.58,-0.87 -1.07,-0.94 l -12.29,-1.88 c -0.68,-0.08 -1.15,-0.62 -1.15,-1.27 0,-0.65 0.52,-1.21 1.15,-1.3 l 5.47,-0.71 c 0.54,-0.07 0.96,-0.44 1.1,-0.91 0.11,-0.51 0,-1.07 -0.38,-1.36 l -3.85,-3.27 c -0.43,-0.37 -0.55,-0.93 -0.4,-1.45 0.2,-0.53 0.69,-0.84 1.22,-0.84 l 164.97,0 c 0.53,0 1.06,0.42 1.08,0.94 0.09,0.54 -0.25,1.07 -0.81,1.24 -0.44,0.08 -0.82,0.51 -0.85,0.97 0,0.48 0.29,0.93 0.76,1.11 l 5.47,2.01"
         style="fill:#f8a36d;fill-opacity:1;fill-rule:nonzero;stroke:none"
         id="path590"
         inkscape:connector-curvature="0" /><path
         d="m 3434.7,1715.06 c 0.49,0.18 0.85,0.63 0.85,1.14 0,0.53 -0.36,0.99 -0.85,1.19 l -7.14,2.73 c -0.47,0.18 -0.79,0.62 -0.79,1.1 -0.02,0.5 0.3,0.99 0.72,1.17 l 6.33,2.93 c 0.54,0.2 0.85,0.79 0.73,1.38 -0.19,0.56 -0.66,1 -1.24,1 l -121.74,0 c -0.51,0 -0.93,-0.32 -1.17,-0.82 -0.13,-0.49 -0.02,-1.04 0.33,-1.36 l 2.02,-1.89 c 0.4,-0.34 0.52,-0.81 0.4,-1.3 -0.17,-0.42 -0.55,-0.79 -1.02,-0.85 l -11.79,-1.8 c -0.59,-0.08 -1.04,-0.61 -1.04,-1.23 0,-0.61 0.47,-1.13 1.11,-1.22 l 5.19,-0.68 c 0.53,-0.07 0.9,-0.39 1.05,-0.86 0.14,-0.5 -0.03,-0.98 -0.39,-1.3 l -3.64,-3.12 c -0.4,-0.32 -0.53,-0.88 -0.38,-1.36 0.22,-0.51 0.63,-0.82 1.16,-0.82 l 125.92,0 c 0.5,0 0.94,0.37 1.04,0.91 0.02,0.51 -0.29,1.01 -0.8,1.14 -0.48,0.13 -0.79,0.53 -0.79,0.94 -0.01,0.47 0.27,0.9 0.68,1.06 l 5.25,1.92"
         style="fill:#f8a36d;fill-opacity:1;fill-rule:nonzero;stroke:none"
         id="path592"
         inkscape:connector-curvature="0" /><path
         d="m 2979.63,3008.25 c 0.76,0.25 1.24,0.93 1.24,1.77 0,0.78 -0.46,1.49 -1.21,1.8 l -10.98,4.18 c -0.74,0.31 -1.23,0.97 -1.23,1.73 0,0.79 0.45,1.47 1.11,1.78 l 9.73,4.49 c 0.83,0.37 1.3,1.22 1.09,2.12 -0.21,0.9 -0.97,1.51 -1.91,1.51 l -235.47,0 c -0.76,0 -1.46,-0.49 -1.77,-1.2 -0.25,-0.74 -0.05,-1.56 0.47,-2.09 l 3.18,-2.92 c 0.55,-0.54 0.77,-1.29 0.55,-1.98 -0.24,-0.71 -0.83,-1.23 -1.56,-1.31 l -18.1,-2.74 c -0.91,-0.19 -1.62,-0.98 -1.6,-1.93 0,-0.98 0.71,-1.75 1.67,-1.89 l 8.04,-1.05 c 0.77,-0.06 1.38,-0.63 1.61,-1.35 0.21,-0.73 -0.04,-1.49 -0.58,-1.97 l -5.68,-4.8 c -0.6,-0.51 -0.79,-1.36 -0.56,-2.09 0.31,-0.74 1,-1.23 1.78,-1.23 l 241.86,0 c 0.84,0 1.52,0.58 1.6,1.38 0.13,0.79 -0.4,1.56 -1.18,1.75 -0.68,0.19 -1.21,0.8 -1.21,1.48 -0.07,0.72 0.37,1.36 1.05,1.6 l 8.06,2.96"
         style="fill:#f9ae78;fill-opacity:1;fill-rule:nonzero;stroke:none"
         id="path594"
         inkscape:connector-curvature="0" /><path
         d="m 2924.85,2706.85 c 0.56,0.19 0.9,0.69 0.9,1.29 0,0.57 -0.34,1.05 -0.9,1.24 l -7.74,2.99 c -0.54,0.22 -0.87,0.7 -0.87,1.23 0,0.52 0.31,1.01 0.8,1.27 l 6.89,3.16 c 0.56,0.28 0.87,0.89 0.73,1.51 -0.13,0.61 -0.66,1.05 -1.3,1.05 l -122,0 c -0.59,0 -1.1,-0.33 -1.32,-0.83 -0.18,-0.53 -0.06,-1.15 0.39,-1.49 l 2.2,-2.08 c 0.39,-0.34 0.54,-0.9 0.39,-1.38 -0.11,-0.51 -0.56,-0.88 -1.09,-0.95 l -12.83,-1.95 c -0.63,-0.09 -1.12,-0.67 -1.12,-1.36 0,-0.67 0.49,-1.23 1.17,-1.3 l 5.69,-0.76 c 0.52,-0.04 0.99,-0.43 1.18,-0.95 0.08,-0.5 -0.06,-1.04 -0.48,-1.42 l -4,-3.38 c -0.43,-0.34 -0.55,-0.97 -0.35,-1.49 0.19,-0.52 0.67,-0.86 1.26,-0.86 l 126.56,0 c 0.56,0 1.03,0.45 1.1,0.99 0.08,0.56 -0.29,1.11 -0.86,1.23 -0.47,0.13 -0.82,0.56 -0.86,1.04 0,0.51 0.31,0.97 0.74,1.15 l 5.72,2.05"
         style="fill:#f9ae78;fill-opacity:1;fill-rule:nonzero;stroke:none"
         id="path596"
         inkscape:connector-curvature="0" /><path
         d="m 3485.81,2805.77 c 0.51,0.18 0.9,0.66 0.9,1.23 0,0.54 -0.39,1.06 -0.87,1.29 l -7.82,2.94 c -0.5,0.19 -0.84,0.7 -0.84,1.23 -0.02,0.57 0.3,1.05 0.78,1.29 l 6.9,3.14 c 0.62,0.26 0.89,0.88 0.76,1.53 -0.14,0.65 -0.7,1.06 -1.32,1.06 l -185.08,0 c -0.53,0 -1.04,-0.37 -1.21,-0.85 -0.22,-0.53 -0.08,-1.11 0.31,-1.48 l 2.26,-2.1 c 0.38,-0.37 0.49,-0.89 0.38,-1.35 -0.19,-0.52 -0.62,-0.9 -1.1,-0.96 l -12.81,-1.93 c -0.67,-0.11 -1.17,-0.68 -1.17,-1.35 0,-0.69 0.54,-1.23 1.21,-1.36 l 5.67,-0.73 c 0.56,-0.06 1,-0.43 1.14,-0.94 0.15,-0.55 -0.02,-1.11 -0.45,-1.4 l -3.95,-3.4 c -0.4,-0.35 -0.6,-0.98 -0.4,-1.5 0.19,-0.53 0.72,-0.9 1.26,-0.9 l 189.57,0 c 0.61,0 1.07,0.44 1.14,1 0.05,0.59 -0.28,1.11 -0.85,1.25 -0.47,0.13 -0.85,0.57 -0.87,1.05 -0.04,0.52 0.26,0.95 0.75,1.14 l 5.71,2.1"
         style="fill:#f8a36d;fill-opacity:1;fill-rule:nonzero;stroke:none"
         id="path598"
         inkscape:connector-curvature="0" /><path
         d="m 3473.09,2431.39 c 0.43,0.37 0.64,0.91 0.55,1.49 -0.06,0.51 -0.33,0.99 -0.85,1.28 l -17.84,10.53 c -0.5,0.29 -0.84,0.86 -0.85,1.45 0,0.64 0.28,1.18 0.78,1.49 l 14.95,9.67 c 0.66,0.42 0.97,1.24 0.75,1.96 -0.24,0.78 -0.92,1.3 -1.71,1.3 l -176.29,0 c -0.73,0 -1.4,-0.46 -1.67,-1.12 -0.23,-0.66 -0.06,-1.47 0.45,-1.95 l 9.93,-9.06 c 0.48,-0.42 0.65,-1.11 0.48,-1.76 -0.21,-0.65 -0.7,-1.12 -1.36,-1.25 l -24.8,-4.99 c -0.68,-0.18 -1.22,-0.73 -1.34,-1.41 -0.14,-0.7 0.16,-1.41 0.78,-1.81 l 10.4,-6.54 c 0.52,-0.33 0.85,-0.96 0.82,-1.56 0,-0.62 -0.39,-1.16 -0.95,-1.48 l -15.66,-7.93 c -0.52,-0.25 -0.87,-0.74 -0.95,-1.32 -0.08,-0.59 0.12,-1.15 0.53,-1.55 l 14.12,-12.65 c 0.39,-0.33 0.53,-0.79 0.53,-1.32 0,-0.5 -0.14,-0.95 -0.57,-1.33 l -17.38,-15.36 c -0.55,-0.46 -0.74,-1.18 -0.53,-1.83 0.22,-0.65 0.8,-1.14 1.5,-1.21 l 15.98,-1.63 c 0.77,-0.08 1.39,-0.65 1.56,-1.42 0.12,-0.77 -0.23,-1.53 -0.94,-1.88 l -17.89,-9.06 c -0.56,-0.29 -0.95,-0.84 -0.96,-1.46 -0.09,-0.61 0.25,-1.23 0.75,-1.57 l 7.44,-4.95 c 0.47,-0.31 0.72,-0.78 0.79,-1.36 0.02,-0.51 -0.19,-1.03 -0.58,-1.41 l -6.68,-5.93 c -0.54,-0.47 -0.75,-1.26 -0.5,-1.94 0.28,-0.67 0.92,-1.11 1.66,-1.11 l 186.12,0 c 0.68,0 1.29,0.37 1.59,0.98 0.28,0.59 0.2,1.29 -0.19,1.86 l -4.8,6.14 c -0.43,0.5 -0.48,1.23 -0.2,1.86 0.32,0.58 0.88,0.98 1.56,0.98 l 8.15,0 c 0.58,0 1.15,0.31 1.48,0.8 0.35,0.49 0.35,1.09 0.14,1.67 l -4.97,10.91 c -0.31,0.65 -0.18,1.38 0.28,1.88 l 9.89,10.98 c 0.27,0.33 0.45,0.8 0.4,1.26 0,0.5 -0.22,0.93 -0.55,1.23 l -11.35,10.17 c -0.4,0.35 -0.64,0.92 -0.58,1.47 0.07,0.55 0.37,1.05 0.87,1.28 l 14.01,8.45 c 0.7,0.43 0.99,1.22 0.82,1.99 -0.26,0.77 -0.93,1.25 -1.71,1.25 l -8.93,0 c -0.73,0 -1.37,0.47 -1.62,1.11 -0.27,0.7 -0.1,1.47 0.43,1.95 l 14.71,13.76"
         style="fill:#f8a36d;fill-opacity:1;fill-rule:nonzero;stroke:none"
         id="path600"
         inkscape:connector-curvature="0" /><path
         d="m 2949.1,2439.7 c -0.55,0.06 -1.05,0.48 -1.16,1.07 -0.14,0.58 0.17,1.17 0.74,1.45 l 13.71,6.96 c 0.45,0.2 0.74,0.64 0.74,1.1 0.08,0.48 -0.17,0.97 -0.6,1.24 l -5.66,3.82 c -0.39,0.2 -0.59,0.61 -0.63,1 0,0.39 0.12,0.84 0.45,1.09 l 5.15,4.57 c 0.43,0.37 0.55,0.96 0.37,1.54 -0.22,0.46 -0.72,0.84 -1.28,0.84 l -143.05,0 c -0.49,0 -0.98,-0.31 -1.22,-0.78 -0.21,-0.46 -0.19,-1.01 0.16,-1.42 l 3.69,-4.75 c 0.33,-0.38 0.39,-0.92 0.14,-1.43 -0.22,-0.43 -0.67,-0.72 -1.23,-0.72 l -6.24,0 c -0.45,0 -0.9,-0.26 -1.14,-0.64 -0.23,-0.37 -0.24,-0.85 -0.04,-1.29 l 3.79,-8.37 c 0.21,-0.48 0.13,-1.05 -0.24,-1.46 l -10.56,-20.93 c -0.27,-0.24 -0.39,-0.61 -0.39,-0.95 0.06,-0.34 0.19,-0.71 0.45,-0.96 l 11.85,-29.55 c 0.39,-0.23 0.63,-0.67 0.65,-1.13 0.05,-0.46 -0.21,-0.89 -0.6,-1.15 l -11.5,-7.43 c -0.46,-0.31 -0.73,-0.95 -0.55,-1.53 0.15,-0.58 0.67,-0.93 1.3,-0.93 l 135.48,0 c 0.59,0 1.08,0.31 1.29,0.84 0.17,0.52 0.03,1.11 -0.34,1.49 l -7.6,6.96 c -0.39,0.33 -0.5,0.86 -0.39,1.36 0.14,0.48 0.52,0.85 1,0.94 l 19.06,3.86 c 0.56,0.09 1.01,0.54 1.03,1.1 0.14,0.52 -0.1,1.05 -0.58,1.34 l -7.98,5.06 c -0.4,0.24 -0.66,0.68 -0.66,1.16 0.05,0.51 0.33,0.92 0.74,1.18 l 12.04,6.09 c 0.43,0.2 0.67,0.57 0.71,1.03 0.06,0.42 -0.05,0.87 -0.43,1.16 l -10.47,27.17"
         style="fill:#f8a36d;fill-opacity:1;fill-rule:nonzero;stroke:none"
         id="path602"
         inkscape:connector-curvature="0" /><path
         d="m 3071.89,971.008 c -38.98,69.872 -41.39,205.432 -41.04,251.512 0.07,4.21 -1.56,8.25 -4.55,11.21 -2.9,2.95 -6.92,4.61 -11.09,4.61 l -190.95,0 c -8.16,0 -14.97,-6.27 -15.61,-14.4 l -14.2,-176.57 c -3.68,-45.48 -13.42,-90.229 -29.07,-133.057 l -10.77,-29.547 C 2729.23,814.988 2685.73,753.137 2628.66,705.59 l -50.28,-41.91 c -15.53,-12.899 -24.46,-32.028 -24.46,-52.223 0,0 35.47,-48.383 243.26,-28.187 59.91,5.781 100.67,97.722 120.1,148.324 21.98,57.289 63.35,85.73 118.8,111.89 42.08,19.836 74.91,57.293 35.81,127.524"
         style="fill:#f79319;fill-opacity:1;fill-rule:nonzero;stroke:none"
         id="path604"
         inkscape:connector-curvature="0" /><path
         d="m 3028.58,859.75 c -10.28,-12.812 -23.15,-23.656 -38.42,-31.844 l 0,-203.519 9.59,-31.512 30.01,0 c 5.42,0 10.06,3.754 11.19,9.047 8.43,39.629 41.77,200.137 48.43,298.887 -14.96,-18.633 -35.29,-33.137 -60.8,-41.059"
         style="fill:#1f2021;fill-opacity:1;fill-rule:nonzero;stroke:none"
         id="path606"
         inkscape:connector-curvature="0" /><path
         d="m 2927.57,758.547 0,-154.231 c 0,-6.347 5.09,-11.441 11.44,-11.441 l 3.26,0 c 1.3,0 2.35,1.047 2.35,2.336 l 0,7.871 c 0,1.301 1.06,2.34 2.33,2.34 l 7.98,0 c 1.28,0 2.33,-1.039 2.33,-2.34 l 0,-7.871 c 0,-1.289 1.05,-2.336 2.35,-2.336 l 10.79,0 c 1.29,0 2.33,1.047 2.33,2.336 l 0,7.871 c 0,1.301 1.06,2.34 2.34,2.34 l 8.02,0 c 1.28,0 2.35,-1.039 2.35,-2.34 l 0,-7.871 c 0,-1.289 1.02,-2.336 2.33,-2.336 l 11.98,0 0,237.848 -72.18,-72.176"
         style="fill:#323335;fill-opacity:1;fill-rule:nonzero;stroke:none"
         id="path608"
         inkscape:connector-curvature="0" /><path
         d="m 3087.04,930.957 c -6.23,-25.809 -26.78,-43.324 -50.96,-54.707 -55.45,-26.184 -98.72,-72.746 -120.68,-130.047 -30.74,-80.223 -90.52,-145.015 -200.97,-149.691 l -114.09,0 c -13.77,0 -26.16,6.023 -34.66,15.551 -2.97,3.382 -7.25,5.308 -11.76,5.308 l 0,-38.66 c 0,-25.652 20.74,-46.453 46.42,-46.453 l 4.86,0 0,11.754 c 0,1.176 0.94,2.152 2.13,2.152 l 7.53,0 c 1.16,0 2.11,-0.976 2.11,-2.152 l 0,-9.418 c 0,-1.289 1.04,-2.336 2.33,-2.336 l 21.65,0 c 1.3,0 2.35,1.047 2.35,2.336 l 0,9.418 c 0,1.176 0.92,2.152 2.09,2.152 l 7.53,0 c 1.18,0 2.15,-0.976 2.15,-2.152 l 0,-9.418 c 0,-1.289 1.03,-2.336 2.32,-2.336 l 21.64,0 c 1.31,0 2.33,1.047 2.33,2.336 l 0,9.418 c 0,1.176 0.97,2.152 2.14,2.152 l 7.51,0 c 1.18,0 2.12,-0.976 2.12,-2.152 l 0,-9.418 c 0,-1.289 1.05,-2.336 2.35,-2.336 l 18.95,0 c 1.01,0.019 1.96,0.137 2.97,0.222 1.17,0.176 2.04,1.176 2.04,2.348 l 0,9.184 c 0,1.176 0.99,2.152 2.13,2.152 l 7.54,0 c 1.14,0 2.11,-0.976 2.11,-2.152 l 0,-7.5 c 0,-0.664 0.24,-1.313 0.83,-1.75 0.47,-0.461 1.16,-0.664 1.86,-0.539 98.02,14.476 152.62,103.882 181.49,179.218 21.96,57.301 65.23,103.883 120.68,130.043 33.21,15.621 70.28,45.293 50.96,87.473"
         style="fill:#323335;fill-opacity:1;fill-rule:nonzero;stroke:none"
         id="path610"
         inkscape:connector-curvature="0" /><path
         d="m 3182.18,971.008 c 38.95,69.872 41.37,205.432 41,251.512 -0.02,4.21 1.61,8.25 4.56,11.21 2.93,2.95 6.93,4.61 11.09,4.61 l 190.97,0 c 8.15,0 14.98,-6.27 15.61,-14.4 l 14.21,-176.57 c 3.67,-45.48 13.43,-90.229 29.05,-133.057 l 10.77,-29.547 c 25.4,-69.778 68.89,-131.629 125.97,-179.176 l 50.3,-41.91 c 15.5,-12.899 24.43,-32.028 24.43,-52.223 0,0 -35.43,-48.383 -243.2,-28.187 -59.98,5.781 -100.74,97.722 -120.16,148.324 -21.97,57.289 -63.33,85.73 -118.82,111.89 -42.05,19.836 -74.88,57.293 -35.78,127.524"
         style="fill:#f08f16;fill-opacity:1;fill-rule:nonzero;stroke:none"
         id="path612"
         inkscape:connector-curvature="0" /><path
         d="m 3225.5,859.75 c 10.29,-12.812 23.16,-23.656 38.39,-31.844 l 0,-203.519 -9.59,-31.512 -29.98,0 c -5.44,0 -10.07,3.754 -11.2,9.047 -8.43,39.629 -41.75,200.137 -48.42,298.887 14.95,-18.633 35.27,-33.137 60.8,-41.059"
         style="fill:#181819;fill-opacity:1;fill-rule:nonzero;stroke:none"
         id="path614"
         inkscape:connector-curvature="0" /><path
         d="m 3326.51,758.547 0,-154.231 c 0,-6.347 -5.12,-11.441 -11.43,-11.441 l -3.28,0 c -1.28,0 -2.33,1.047 -2.33,2.336 l 0,7.871 c 0,1.301 -1.08,2.34 -2.35,2.34 l -7.98,0 c -1.3,0 -2.32,-1.039 -2.32,-2.34 l 0,-7.871 c 0,-1.289 -1.07,-2.336 -2.34,-2.336 l -10.82,0 c -1.3,0 -2.33,1.047 -2.33,2.336 l 0,7.871 c 0,1.301 -1.06,2.34 -2.34,2.34 l -8.01,0 c -1.28,0 -2.35,-1.039 -2.35,-2.34 l 0,-7.871 c 0,-1.289 -1.02,-2.336 -2.33,-2.336 l -12,0 0,237.848 72.21,-72.176"
         style="fill:#28292a;fill-opacity:1;fill-rule:nonzero;stroke:none"
         id="path616"
         inkscape:connector-curvature="0" /><path
         d="m 3167.03,930.957 c 6.23,-25.809 26.77,-43.324 50.93,-54.707 55.49,-26.184 98.76,-72.746 120.7,-130.047 30.75,-80.223 90.54,-145.015 200.96,-149.691 l 114.12,0 c 13.78,0 26.16,6.023 34.63,15.551 2.97,3.382 7.27,5.308 11.77,5.308 l 0,-38.66 c 0,-25.652 -20.75,-46.453 -46.4,-46.453 l -4.88,0 0,11.754 c 0,1.176 -0.99,2.152 -2.14,2.152 l -7.51,0 c -1.17,0 -2.1,-0.976 -2.1,-2.152 l 0,-9.418 c 0,-1.289 -1.05,-2.336 -2.35,-2.336 l -21.65,0 c -1.29,0 -2.32,1.047 -2.32,2.336 l 0,9.418 c 0,1.176 -0.93,2.152 -2.1,2.152 l -7.56,0 c -1.17,0 -2.1,-0.976 -2.1,-2.152 l 0,-9.418 c 0,-1.289 -1.07,-2.336 -2.35,-2.336 l -21.63,0 c -1.28,0 -2.33,1.047 -2.33,2.336 l 0,9.418 c 0,1.176 -0.97,2.152 -2.14,2.152 l -7.54,0 c -1.17,0 -2.1,-0.976 -2.1,-2.152 l 0,-9.418 c 0,-1.289 -1.08,-2.336 -2.37,-2.336 l -18.95,0 c -1,0.019 -1.97,0.137 -2.96,0.222 -1.17,0.176 -2.01,1.176 -2.01,2.348 l 0,9.184 c 0,1.176 -1.01,2.152 -2.17,2.152 l -7.5,0 c -1.17,0 -2.12,-0.976 -2.12,-2.152 l 0,-7.5 c 0,-0.664 -0.27,-1.313 -0.82,-1.75 -0.5,-0.461 -1.18,-0.664 -1.86,-0.539 -98.05,14.476 -152.62,103.882 -181.52,179.218 -21.94,57.301 -65.21,103.883 -120.7,130.043 -33.18,15.621 -70.25,45.293 -50.93,87.473"
         style="fill:#28292a;fill-opacity:1;fill-rule:nonzero;stroke:none"
         id="path618"
         inkscape:connector-curvature="0" /><path
         d="m 3125.26,5810.61 -172.53,49.51 -236.02,-61.6 0,-2148.24 336.1,-60.14 c 2.45,-0.42 5.01,0.13 7.04,1.6 2.04,1.49 3.37,3.7 3.72,6.17 l 62.31,407.23 71.23,8.59 33.91,1326.86 -105.76,470.02"
         style="fill:#fafafa;fill-opacity:1;fill-rule:nonzero;stroke:none"
         id="path620"
         inkscape:connector-curvature="0" /><path
         d="m 3298.18,5860.1 -172.54,-49.49 0,-1805.36 61.65,-407.53 c 0.35,-2.45 1.68,-4.61 3.68,-6.1 2.02,-1.41 4.5,-2.03 6.92,-1.61 l 359.13,60.16 0,2142.4 -258.84,67.53"
         style="fill:#f1f1f1;fill-opacity:1;fill-rule:nonzero;stroke:none"
         id="path622"
         inkscape:connector-curvature="0" /><path
         d="m 2857.19,5047.7 c 0,0 87.5,-37.49 154.93,-47.57 67.47,-10.04 28.05,-65.67 -119.15,-100.5 -147.26,-34.83 -35.78,148.07 -35.78,148.07"
         style="fill:#f1f1f1;fill-opacity:1;fill-rule:nonzero;stroke:none"
         id="path624"
         inkscape:connector-curvature="0" /><path
         d="m 3401.72,5047.7 c 0,0 -87.5,-37.49 -154.91,-47.57 -67.48,-10.04 -28.1,-65.67 119.12,-100.5 147.29,-34.83 35.79,148.07 35.79,148.07"
         style="fill:#e6e6e6;fill-opacity:1;fill-rule:nonzero;stroke:none"
         id="path626"
         inkscape:connector-curvature="0" /><path
         d="m 3398.94,5182.81 c 0,0 2.13,22.5 -38.27,54.38 -40.54,31.89 34.65,43.15 81.47,30.06 46.84,-13.16 -43.2,-84.44 -43.2,-84.44"
         style="fill:#e6e6e6;fill-opacity:1;fill-rule:nonzero;stroke:none"
         id="path628"
         inkscape:connector-curvature="0" /><path
         d="m 2852.47,5182.81 c 0,0 -2.14,22.5 38.3,54.38 40.51,31.89 -34.68,43.15 -81.48,30.06 -46.86,-13.16 43.18,-84.44 43.18,-84.44"
         style="fill:#f1f1f1;fill-opacity:1;fill-rule:nonzero;stroke:none"
         id="path630"
         inkscape:connector-curvature="0" /><path
         d="m 3091.59,5614.71 c -19.34,2.71 -37.85,7.64 -55.4,14.46 l 12.18,60.75 c 14.57,-3.57 29.6,-6 45.13,-7.51 l -1.91,-67.7 z m -62.85,17.24 c -16.79,7.14 -32.5,16.13 -47.2,26.27 l 18.09,47.76 c 13.07,-5.67 26.76,-10.59 41.05,-14.46 l -11.94,-59.57 z m -53.79,31.01 c -13.9,10.27 -26.76,21.61 -38.25,33.97 l 19.3,33.46 c 11.45,-7.73 23.61,-14.68 36.57,-20.78 l -17.62,-46.65 z m -43.78,40.16 c -9.55,10.9 -18.13,22.34 -25.58,34.26 l 16.24,20.67 c 8.54,-8.29 17.74,-15.93 27.71,-23.08 l -18.37,-31.85 z m -52.12,92.79 7,5.99 c 8.22,-13.76 18.57,-26.44 30.1,-38.38 l -14.81,-18.84 c -9.66,16.61 -17.23,33.79 -22.29,51.23 z m -6.42,32.75 c 2.68,-6.7 6.21,-13.06 9.73,-19.48 l -5.43,-4.73 c -1.98,8.06 -3.51,16.16 -4.3,24.21 z m 252.87,-216.59 c -8.84,0 -17.52,0.48 -26.05,1.41 l 1.89,68.4 c 8.05,-0.59 15.9,-1.59 24.16,-1.59 l 0.13,0.02 31.52,6.79 -31.51,4.71 -0.14,-0.02 c -117.07,0 -215.16,62.75 -245.87,147.8 -2.39,-2.65 -4.92,-5.16 -7.54,-7.62 -4.34,-3.97 -9.08,-7.52 -14.07,-10.84 1.66,-12.06 4.68,-24.18 8.62,-36.25 l 0,-11.63 c -2.9,-1.04 -5.15,-3.31 -5.15,-6.53 0,-3.26 2.25,-5.5 5.15,-6.58 l 0,-22.47 c -5.91,-1.17 -10.46,-6.07 -10.46,-12.3 0,-7.08 5.72,-12.8 12.79,-12.8 7.09,0 12.8,5.72 12.8,12.8 0,6.23 -4.49,11.13 -10.38,12.3 l 0,22.47 c 1.41,0.56 2.71,1.41 3.66,2.52 4.8,-11.01 10.65,-21.84 17.18,-32.42 l 0,-11.11 c -2.87,-1.09 -5.16,-3.33 -5.16,-6.56 0,-3.24 2.29,-5.49 5.16,-6.55 l 0,-22.49 c -5.91,-1.14 -10.46,-6.1 -10.46,-12.32 0,-7.08 5.71,-12.8 12.82,-12.8 7.07,0 12.78,5.72 12.78,12.8 0,6.22 -4.5,11.18 -10.4,12.32 l 0,22.49 c 2.85,1.06 5.2,3.31 5.2,6.55 0,3.23 -2.35,5.47 -5.2,6.56 l 0,3.4 c 8.78,-13.22 18.78,-25.97 29.98,-37.89 l 0,-11.7 c -2.9,-1.05 -5.18,-3.35 -5.18,-6.53 0,-3.26 2.28,-5.52 5.18,-6.59 l 0,-22.46 c -5.92,-1.16 -10.47,-6.09 -10.47,-12.31 0,-7.07 5.73,-12.79 12.84,-12.79 7.04,0 12.76,5.72 12.76,12.79 0,6.22 -4.51,11.15 -10.4,12.31 l 0,22.46 c 2.85,1.07 5.19,3.33 5.19,6.59 0,3.18 -2.34,5.48 -5.19,6.53 l 0,6.96 c 12.37,-12.65 26.11,-24.27 40.93,-34.67 l 0,-19 c -2.88,-1.07 -5.16,-3.35 -5.16,-6.53 0,-3.27 2.28,-5.52 5.16,-6.59 l 0,-22.46 c -5.89,-1.17 -10.45,-6.1 -10.45,-12.3 0,-7.08 5.74,-12.83 12.79,-12.83 7.09,0 12.82,5.75 12.82,12.83 0,6.2 -4.55,11.13 -10.41,12.3 l 0,22.46 c 2.83,1.07 5.16,3.32 5.16,6.59 0,3.18 -2.33,5.46 -5.16,6.53 l 0,15.72 c 16.04,-10.81 33.28,-20.13 51.63,-27.48 l 0,-15.3 c -2.86,-1.07 -5.18,-3.32 -5.18,-6.56 0,-3.21 2.32,-5.47 5.18,-6.56 l 0,-22.48 c -5.9,-1.14 -10.43,-6.11 -10.43,-12.3 0,-7.09 5.7,-12.8 12.82,-12.8 7.06,0 12.76,5.71 12.76,12.8 0,6.19 -4.5,11.16 -10.41,12.3 l 0,22.48 c 2.86,1.09 5.15,3.35 5.15,6.56 0,3.24 -2.29,5.49 -5.15,6.56 l 0,13.57 c 18.81,-7.1 38.61,-12.17 59.27,-14.83 l 0,-13.36 c -2.86,-1.04 -5.17,-3.32 -5.17,-6.51 0,-3.26 2.31,-5.51 5.17,-6.6 l 0,-22.45 c -5.93,-1.17 -10.43,-6.1 -10.43,-12.32 0,-7.09 5.71,-12.8 12.81,-12.8 7.07,0 12.8,5.71 12.8,12.8 0,6.22 -4.52,11.15 -10.45,12.32 l 0,22.45 c 2.87,1.09 5.18,3.34 5.18,6.6 0,3.19 -2.31,5.47 -5.18,6.51 l 0,12.61 c 9.1,-0.98 18.32,-1.58 27.77,-1.58 l 0.13,0.01 31.52,11.68 -31.51,4.8 -0.14,0"
         style="fill:#55636c;fill-opacity:1;fill-rule:nonzero;stroke:none"
         id="path632"
         inkscape:connector-curvature="0" /><path
         d="m 3381.47,5773.25 c -0.66,-0.24 -1.16,-0.73 -1.74,-1.15 0.57,1.48 1.17,2.93 1.74,4.41 l 0,-3.26 z m -7.03,32.43 -4.87,4.26 c 3.25,6.01 6.18,12.11 8.77,18.39 -0.82,-7.51 -2.11,-15.08 -3.9,-22.65 z m -23.96,-59.76 -14.58,18.52 c 11.46,11.92 21.92,24.45 30.11,38.17 l 6.47,-5.64 c -4.92,-17.33 -12.5,-34.45 -22,-51.05 z m -29.53,-41.66 -18.16,31.51 c 9.88,7.14 19.03,14.83 27.51,23.07 l 16.02,-20.34 c -7.37,-11.87 -15.92,-23.31 -25.37,-34.24 z m -43.48,-40.25 -17.47,46.29 c 12.89,6.09 25,13.11 36.39,20.86 l 19.02,-33.06 c -11.36,-12.36 -24.1,-23.76 -37.94,-34.09 z m -53.54,-31.33 -11.88,59.2 c 14.27,3.98 27.86,9 40.91,14.72 l 17.94,-47.4 c -14.61,-10.27 -30.26,-19.29 -46.97,-26.52 z m -62.72,-17.66 -1.9,67.54 c 15.48,1.58 30.51,4.12 45.03,7.8 l 12.12,-60.56 c -17.48,-6.92 -35.98,-11.94 -55.25,-14.78 z m 224.97,122.65 0,22.47 c 2.84,1.08 5.18,3.32 5.18,6.58 0,3.22 -2.34,5.49 -5.18,6.53 l 0,17.75 c 3.25,11.04 5.83,22.13 7.16,33.14 -5.13,3.95 -9.61,8.5 -14.01,13.17 -2.03,1.99 -4.21,3.89 -6.05,6.1 -29.1,-87.03 -128.83,-151.56 -247.64,-151.6 l 0,-11.5 c 8.77,0 17.22,1.05 25.85,1.73 l 1.9,-68.28 c -9.14,-1.05 -18.36,-1.69 -27.75,-1.69 l 0,-16.48 c 10.02,0 19.75,0.71 29.43,1.83 l 0,-12.87 c -2.87,-1.04 -5.19,-3.32 -5.19,-6.51 0,-3.26 2.32,-5.51 5.19,-6.6 l 0,-22.45 c -5.9,-1.17 -10.45,-6.1 -10.45,-12.32 0,-7.09 5.72,-12.8 12.83,-12.8 7.03,0 12.78,5.71 12.78,12.8 0,6.22 -4.52,11.15 -10.42,12.32 l 0,22.45 c 2.87,1.09 5.15,3.34 5.15,6.6 0,3.19 -2.28,5.47 -5.15,6.51 l 0,13.61 c 20.65,2.83 40.46,8.01 59.26,15.27 l 0,-14.26 c -2.87,-1.07 -5.16,-3.32 -5.16,-6.56 0,-3.21 2.29,-5.47 5.16,-6.56 l 0,-22.48 c -5.92,-1.14 -10.42,-6.11 -10.42,-12.3 0,-7.09 5.73,-12.8 12.8,-12.8 7.07,0 12.8,5.71 12.8,12.8 0,6.19 -4.53,11.16 -10.44,12.3 l 0,22.48 c 2.87,1.09 5.17,3.35 5.17,6.56 0,3.24 -2.3,5.49 -5.17,6.56 l 0,15.97 c 18.39,7.52 35.59,17.04 51.66,28.05 l 0,-16.96 c -2.89,-1.07 -5.15,-3.35 -5.15,-6.53 0,-3.27 2.26,-5.52 5.15,-6.59 l 0,-22.46 c -5.89,-1.17 -10.43,-6.1 -10.43,-12.3 0,-7.08 5.73,-12.83 12.78,-12.83 7.1,0 12.82,5.75 12.82,12.83 0,6.2 -4.54,11.13 -10.41,12.3 l 0,22.46 c 2.83,1.07 5.16,3.32 5.16,6.59 0,3.18 -2.33,5.46 -5.16,6.53 l 0,19.05 c 0,0.39 -0.55,0.39 -0.76,0.72 15.14,10.71 29.07,22.68 41.7,35.73 l 0,-8.79 c -2.91,-1.05 -5.18,-3.35 -5.18,-6.53 0,-3.26 2.27,-5.52 5.18,-6.59 l 0,-22.46 c -5.95,-1.16 -10.49,-6.09 -10.49,-12.31 0,-7.07 5.73,-12.79 12.82,-12.79 7.06,0 12.78,5.72 12.78,12.79 0,6.22 -4.52,11.15 -10.4,12.31 l 0,22.46 c 2.83,1.07 5.19,3.33 5.19,6.59 0,3.18 -2.36,5.48 -5.19,6.53 l 0,13.65 c 11.23,12.23 21.23,25.23 29.99,38.78 l 0,-6.24 c -2.91,-1.09 -5.19,-3.33 -5.19,-6.56 0,-3.24 2.28,-5.49 5.19,-6.55 l 0,-22.49 c -5.94,-1.14 -10.49,-6.1 -10.49,-12.32 0,-7.08 5.72,-12.8 12.82,-12.8 7.05,0 12.78,5.72 12.78,12.8 0,6.22 -4.51,11.18 -10.39,12.32 l 0,22.49 c 2.82,1.06 5.17,3.31 5.17,6.55 0,3.23 -2.35,5.47 -5.17,6.56 l 0,14.05 c 6.21,10.4 11.77,20.96 16.34,31.76 0.72,-2.21 2.28,-3.94 4.54,-4.8 l 0,-22.47 c -5.91,-1.17 -10.49,-6.07 -10.49,-12.3 0,-7.08 5.76,-12.8 12.82,-12.8 7.05,0 12.81,5.72 12.81,12.8 0,6.23 -4.54,11.13 -10.43,12.3"
         style="fill:#47555d;fill-opacity:1;fill-rule:nonzero;stroke:none"
         id="path634"
         inkscape:connector-curvature="0" /><path
         d="m 2955.39,5860.1 c 0,0 -14.81,-0.46 -39.08,-9.29 -8.21,-2.99 -27.14,-14.02 -35.88,-19.22 -1.16,-0.64 -1.92,-1.77 -2.09,-3.06 -0.2,-1.3 0.21,-2.59 1.11,-3.57 l 141.23,-154.49 c 0.88,-0.97 2.16,-1.5 3.46,-1.42 1.34,0.08 2.52,0.73 3.29,1.84 l 98.21,139.72 -170.25,49.49"
         style="fill:#f1f1f1;fill-opacity:1;fill-rule:nonzero;stroke:none"
         id="path636"
         inkscape:connector-curvature="0" /><path
         d="m 3370.28,5831.59 c -8.75,5.2 -27.73,16.23 -35.9,19.22 -24.31,8.83 -39.08,9.29 -39.08,9.29 l -170.29,-49.49 98.21,-139.72 c 0.78,-1.11 1.97,-1.76 3.3,-1.84 1.32,-0.08 2.6,0.45 3.47,1.42 l 141.24,154.49 c 0.88,0.98 1.29,2.27 1.13,3.57 -0.23,1.29 -1,2.42 -2.08,3.06"
         style="fill:#e6e6e6;fill-opacity:1;fill-rule:nonzero;stroke:none"
         id="path638"
         inkscape:connector-curvature="0" /><path
         d="m 2648.1,5584.93 -71.11,0 25.19,-623.32 c 13.78,-341.2 0.19,-682.96 -40.74,-1022.01 L 2425.43,2812.35 c -0.68,-5.41 1.03,-10.87 4.68,-14.97 3.61,-4.04 8.77,-6.38 14.27,-6.38 l 443.19,0 c 10.51,0 19.06,8.54 19.06,19.07 l 0,2119.72 -258.53,655.14"
         style="fill:#3b679f;fill-opacity:1;fill-rule:nonzero;stroke:none"
         id="path640"
         inkscape:connector-curvature="0" /><path
         d="m 2493.7,5815.49 c -2.66,-2.1 -3.84,-5.55 -3.13,-8.89 0.7,-3.32 3.28,-5.97 6.57,-6.77 36.07,-9.09 88.97,-29.71 125.68,-44.83 10.06,-4.12 17.57,-12.71 20.39,-23.25 2.78,-10.45 0.53,-21.68 -6.13,-30.27 -39.85,-51.5 -110.51,-142.99 -128.7,-166.46 -2.46,-3.22 -2.11,-7.71 0.8,-10.47 33.54,-31.94 221.95,-215.19 304.7,-378.13 88.69,-174.61 92.75,-288.41 92.75,-288.41 0,0 0,25.79 0,93.43 0,98.38 -72.37,449.52 -119.39,667.34 -21.86,100.99 37.5,201.92 136.41,231.77 l 31.74,9.55 0,187.64 c 0,0 -170.37,2.59 -461.69,-232.25"
         style="fill:#305e93;fill-opacity:1;fill-rule:nonzero;stroke:none"
         id="path642"
         inkscape:connector-curvature="0" /><path
         d="m 2745.94,3910.41 -154.53,0 c -12.74,0 -24.93,-5.36 -33.47,-14.82 -52.56,-57.91 -62.29,-127.08 -64.05,-151.82 -0.16,-2.43 0.66,-4.81 2.29,-6.59 1.67,-1.8 4.04,-2.77 6.41,-2.77 l 243.35,0 c 4.89,0 8.76,3.88 8.76,8.75 l 0,158.52 c 0,4.87 -3.87,8.73 -8.76,8.73"
         style="fill:#305e93;fill-opacity:1;fill-rule:nonzero;stroke:none"
         id="path644"
         inkscape:connector-curvature="0" /><path
         d="m 3688.49,3939.65 c -40.85,339 -54.51,680.76 -40.74,1021.89 l 25.26,623.39 -71.12,0 -258.51,-655.14 0,-2119.72 c 0,-10.53 8.53,-19.07 19.05,-19.07 l 443.12,0 c 5.47,0 10.74,2.34 14.29,6.38 3.62,4.1 5.34,9.56 4.68,14.97 l -136.03,1127.3"
         style="fill:#305e93;fill-opacity:1;fill-rule:nonzero;stroke:none"
         id="path646"
         inkscape:connector-curvature="0" /><path
         d="m 3752.87,5799.83 c 3.27,0.8 5.77,3.45 6.53,6.77 0.76,3.34 -0.5,6.79 -3.14,8.89 -291.31,234.84 -461.64,232.25 -461.64,232.25 l 0,-187.64 31.7,-9.55 c 98.92,-29.85 158.27,-130.78 136.45,-231.77 -47.02,-217.82 -119.39,-568.96 -119.39,-667.34 0,-67.64 0,-93.43 0,-93.43 0,0 4.04,113.8 92.73,288.41 82.75,162.94 271.16,346.19 304.71,378.13 2.89,2.76 3.26,7.25 0.8,10.47 l -128.71,166.46 c -6.67,8.59 -8.89,19.82 -6.14,30.27 2.83,10.54 10.36,19.13 20.42,23.25 36.71,15.12 89.62,35.74 125.68,44.83"
         style="fill:#2c4b74;fill-opacity:1;fill-rule:nonzero;stroke:none"
         id="path648"
         inkscape:connector-curvature="0" /><path
         d="m 3692.07,3895.59 c -8.54,9.46 -20.73,14.82 -33.48,14.82 l -154.55,0 c -4.83,0 -8.75,-3.86 -8.75,-8.73 l 0,-158.52 c 0,-4.87 3.92,-8.75 8.75,-8.75 l 243.3,0 c 2.46,0 4.74,0.97 6.38,2.77 1.67,1.78 2.54,4.16 2.37,6.59 -1.8,24.74 -11.46,93.91 -64.02,151.82"
         style="fill:#2c4b74;fill-opacity:1;fill-rule:nonzero;stroke:none"
         id="path650"
         inkscape:connector-curvature="0" /><path
         d="m 3128.22,7165.58 54.13,-622.12 41.2,-267.12 -95.33,-295.99 -26.22,0 c -46.39,0 -90.93,20.59 -123.69,57.24 l -146.02,163.3 c -48.57,61.52 -72.9,132.14 -78.52,215.38 -9.51,140.64 -25.42,556.89 -25.42,556.89 l 399.87,192.42"
         style="fill:#fabc84;fill-opacity:1;fill-rule:nonzero;stroke:none"
         id="path652"
         inkscape:connector-curvature="0" /><path
         d="m 3123.08,7165.58 2.45,-1185.23 26.31,0 c 43.95,0 88.42,20.59 121.16,57.24 l 146.05,163.3 c 52.15,73.51 81.81,150.33 81.81,281.77 0,123.16 22.17,490.5 22.17,490.5 l -399.95,192.42"
         style="fill:#f9ae78;fill-opacity:1;fill-rule:nonzero;stroke:none"
         id="path654"
         inkscape:connector-curvature="0" /><path
         d="m 3054.76,6304.51 c -2.54,-3.28 -3.06,-7.64 -1.28,-11.37 1.82,-3.71 5.64,-6.05 9.74,-6.05 l 71.32,0 0,45.94 c -1.98,-0.1 -3.9,-0.24 -5.85,-0.33 -44.6,-2.93 -64.79,-16.56 -73.93,-28.19"
         style="fill:#f9ae78;fill-opacity:1;fill-rule:nonzero;stroke:none"
         id="path656"
         inkscape:connector-curvature="0" /><path
         d="m 3008.95,6201.81 c 4.37,-6.79 8.97,-13.51 13.73,-20.19 22.21,-31.41 61.77,-51.59 104.28,-51.8 42.54,-0.48 82.53,19.04 105.38,50.06 5.33,7.25 10.52,14.58 15.5,21.93 -78.83,-16.34 -160.13,-16.34 -238.89,0"
         style="fill:#f57e59;fill-opacity:1;fill-rule:nonzero;stroke:none"
         id="path658"
         inkscape:connector-curvature="0" /><path
         d="m 3161.25,6202.34 c -9.62,2.02 -19.65,0.5 -25.78,-6.89 -1.65,-2.07 -4.31,-3.26 -7.09,-3.26 -2.85,0 -5.42,1.19 -7.14,3.26 -6.1,7.34 -16.12,8.89 -25.76,6.89 -20.82,-5.79 -86.5,-1.14 -86.5,-0.15 9.66,-4.72 19.52,-9.15 29.55,-13.32 56.39,-23.83 123.35,-23.83 179.65,0 10.03,4.17 19.87,8.6 29.56,13.32 0,-0.99 -65.7,-5.61 -86.49,0.15"
         style="fill:#ed6d52;fill-opacity:1;fill-rule:nonzero;stroke:none"
         id="path660"
         inkscape:connector-curvature="0" /><path
         d="m 2802.35,6577.51 c 0,0 36.82,-124.72 208.58,-39.11 0,0 -71.44,104.53 -208.58,39.11"
         style="fill:#fafafa;fill-opacity:1;fill-rule:nonzero;stroke:none"
         id="path662"
         inkscape:connector-curvature="0" /><path
         d="m 2797.77,6574.31 c -0.2,-0.13 -0.22,-0.37 -0.11,-0.56 0.11,-0.16 0.34,-0.23 0.55,-0.11 21.19,10.29 111.11,45.63 214.35,-36.49 0.12,-0.13 0.37,-0.13 0.47,0.02 0.18,0.12 0.22,0.33 0.09,0.52 -10.95,16.62 -90.12,126.58 -215.35,36.62"
         style="fill:#1f2021;fill-opacity:1;fill-rule:nonzero;stroke:none"
         id="path664"
         inkscape:connector-curvature="0" /><path
         d="m 2857.87,6554.43 c 2.17,-25.22 24.44,-43.84 49.68,-41.65 25.16,2.2 43.79,24.43 41.59,49.65 -2.19,25.18 -24.43,43.89 -49.6,41.68 -25.23,-2.2 -43.89,-24.47 -41.67,-49.68"
         style="fill:#1f2021;fill-opacity:1;fill-rule:nonzero;stroke:none"
         id="path666"
         inkscape:connector-curvature="0" /><path
         d="m 2877.24,6566 c 0.66,-7.55 7.27,-13.14 14.85,-12.48 7.6,0.66 13.17,7.32 12.49,14.89 -0.64,7.57 -7.31,13.17 -14.87,12.48 -7.57,-0.67 -13.12,-7.3 -12.47,-14.89"
         style="fill:#fafafa;fill-opacity:1;fill-rule:nonzero;stroke:none"
         id="path668"
         inkscape:connector-curvature="0" /><path
         d="m 3436.16,6577.51 c 0,0 -36.78,-124.69 -208.59,-39.07 0,0 71.41,104.49 208.59,39.07"
         style="fill:#fafafa;fill-opacity:1;fill-rule:nonzero;stroke:none"
         id="path670"
         inkscape:connector-curvature="0" /><path
         d="m 3440.69,6574.31 c -125.26,89.98 -204.36,-19.96 -215.32,-36.62 -0.07,-0.15 -0.05,-0.37 0.08,-0.48 0.18,-0.17 0.35,-0.17 0.53,-0.04 103.24,82.14 193.07,46.8 214.32,36.47 0.18,-0.1 0.41,0 0.49,0.15 0.12,0.19 0.05,0.39 -0.1,0.52"
         style="fill:#1f2021;fill-opacity:1;fill-rule:nonzero;stroke:none"
         id="path672"
         inkscape:connector-curvature="0" /><path
         d="m 3289.34,6562.43 c -2.21,-25.22 16.42,-47.45 41.66,-49.65 25.2,-2.17 47.45,16.43 49.67,41.65 2.21,25.23 -16.5,47.51 -41.68,49.68 -25.23,2.21 -47.43,-16.5 -49.65,-41.68"
         style="fill:#1f2021;fill-opacity:1;fill-rule:nonzero;stroke:none"
         id="path674"
         inkscape:connector-curvature="0" /><path
         d="m 3310.4,6570.43 c -0.65,-7.49 4.94,-14.16 12.46,-14.83 7.57,-0.67 14.29,4.93 14.93,12.42 0.65,7.65 -4.94,14.29 -12.52,14.98 -7.55,0.6 -14.21,-4.99 -14.87,-12.57"
         style="fill:#fafafa;fill-opacity:1;fill-rule:nonzero;stroke:none"
         id="path676"
         inkscape:connector-curvature="0" /><path
         d="m 3021.3,6667.54 c -11.09,15.84 -52.6,36.63 -94.68,42.6 -91.74,13.05 -134.17,-32.86 -153.42,-48.25 -0.58,-0.42 -0.62,-1.26 -0.25,-1.91 0.45,-0.55 1.29,-0.85 1.89,-0.43 87.06,63.45 193.1,18.29 235.15,-4.62 3.51,-1.96 7.98,-1.16 10.64,1.86 2.7,3.01 3.02,7.5 0.67,10.75"
         style="fill:#64341e;fill-opacity:1;fill-rule:nonzero;stroke:none"
         id="path678"
         inkscape:connector-curvature="0" /><path
         d="m 3217.2,6667.54 c 11.08,15.84 52.62,36.63 94.66,42.6 91.78,13.05 134.18,-32.86 153.47,-48.25 0.58,-0.42 0.62,-1.26 0.21,-1.91 -0.43,-0.55 -1.25,-0.85 -1.84,-0.43 -87.11,63.45 -193.11,18.29 -235.18,-4.62 -3.5,-1.96 -7.93,-1.16 -10.64,1.86 -2.68,3.01 -3.02,7.5 -0.68,10.75"
         style="fill:#562a16;fill-opacity:1;fill-rule:nonzero;stroke:none"
         id="path680"
         inkscape:connector-curvature="0" /><path
         d="m 3318.11,7104.02 c 0,0 -67.94,-156.04 -195.03,-270.49 -79.4,98.47 -29.58,298.08 -29.58,298.08 l 224.61,-27.59"
         style="fill:#562a16;fill-opacity:1;fill-rule:nonzero;stroke:none"
         id="path682"
         inkscape:connector-curvature="0" /><path
         d="m 3234.13,7054.01 c 0,0 261.55,-77.78 266.3,-475.81 15.69,-357.82 80.22,-6.72 78.84,53.49 -1.42,60.29 -58.11,356.94 -58.11,356.94 l -183.28,130.11 -103.75,-64.73"
         style="fill:#562a16;fill-opacity:1;fill-rule:nonzero;stroke:none"
         id="path684"
         inkscape:connector-curvature="0" /><path
         d="m 2666.87,6882.12 c 0,0 0.85,124.08 61.48,141.8 60.64,17.73 133.55,-5.26 126.63,-36.77 -6.93,-31.51 -13.27,-73.52 -57.35,-105.03 -44.09,-31.51 -82.48,-62.62 -111.88,-68.1 -29.41,-5.4 -18.88,68.1 -18.88,68.1"
         style="fill:#64341e;fill-opacity:1;fill-rule:nonzero;stroke:none"
         id="path686"
         inkscape:connector-curvature="0" /><path
         d="m 3124.2,7385.95 -94.56,-21.96 24.48,-183.71 c 52.11,0.98 100.95,-2.28 141.43,-9.3 23.77,-4.13 44.17,-15.93 60.45,-32.3 146.71,-33.37 276.11,-108.45 344.64,-245.45 2.25,9.29 4.12,18.77 4.95,28.69 20.32,243.22 -278.1,463.26 -481.39,464.03"
         style="fill:#f08f16;fill-opacity:1;fill-rule:nonzero;stroke:none"
         id="path688"
         inkscape:connector-curvature="0" /><path
         d="m 3124.2,7178.99 0,206.96 c -0.37,0 -0.75,0.05 -1.12,0.05 -162.31,0 -318.69,-120.36 -375.25,-267.26 111.85,50.7 260.5,67.33 376.37,60.25"
         style="fill:#f79319;fill-opacity:1;fill-rule:nonzero;stroke:none"
         id="path690"
         inkscape:connector-curvature="0" /><path
         d="m 3625.99,6942.53 c -29.9,95.24 -226.94,312.46 -502.91,365.88 l -94.5,-40.37 10.4,-136.29 84.1,-39.17 c 3.88,0.06 7.54,0.31 11.46,0.31 409.96,0 491.45,-439.03 491.45,-439.03 0,0 51.18,125.34 0,288.67"
         style="fill:#f79319;fill-opacity:1;fill-rule:nonzero;stroke:none"
         id="path692"
         inkscape:connector-curvature="0" /><path
         d="m 3008.95,7320.66 c -334.89,5.22 -397.43,-205.78 -420.04,-293.71 -21.31,-82.5 -25.32,-372.41 18.2,-391.64 78.64,141.82 120.6,451.3 515.97,457.27 l 0,215.83 c -36.73,7.13 -74.8,11.63 -114.13,12.25"
         style="fill:#f89e27;fill-opacity:1;fill-rule:nonzero;stroke:none"
         id="path694"
         inkscape:connector-curvature="0" /><path
         d="m 3118.91,7092.76 c -135.69,0 -299.62,-59.95 -432.65,-150.19 -53.22,-36.07 -94.1,-86.51 -118.58,-145.96 -28.24,-68.61 -68.92,-128.18 -124.08,-113.47 155.62,-146.06 558.73,29.66 679.48,150.39 l 0,259.36 c -1.33,0 -2.82,-0.13 -4.17,-0.13"
         style="fill:#64341e;fill-opacity:1;fill-rule:nonzero;stroke:none"
         id="path696"
         inkscape:connector-curvature="0" /><path
         d="m 2983.09,6705.91 c 8.18,4.44 23.8,10.75 34.27,16.41 36.44,19.87 72.31,43.51 106.62,69.89 l 16.36,21.55 -16.36,-3.72 c -43.38,-41.64 -91.4,-77.14 -140.89,-104.13"
         style="fill:#64341e;fill-opacity:1;fill-rule:nonzero;stroke:none"
         id="path698"
         inkscape:connector-curvature="0" /><path
         d="m 3325.75,7044.76 c -0.28,0.92 -0.39,1.78 -0.68,2.71 -13.47,2.97 -25.26,8.19 -36.12,14.33 -31.93,-94.09 -91.95,-181.67 -164.97,-251.76 l 0,-17.83 c 86.47,66.5 161.71,152.26 201.77,252.55"
         style="fill:#562a16;fill-opacity:1;fill-rule:nonzero;stroke:none"
         id="path700"
         inkscape:connector-curvature="0" /><path
         d="m 2758.02,6773.41 c 0,0 -17.22,-329.4 1.18,-486.95 18.34,-157.54 -76.17,273.11 -76.17,273.11 l 0,166.44 74.99,47.4"
         style="fill:#64341e;fill-opacity:1;fill-rule:nonzero;stroke:none"
         id="path702"
         inkscape:connector-curvature="0" /><path
         d="m 3599.52,6737.56 c 0,0 89.48,-266.02 207.65,-309.54 -70.9,23.44 -166.74,86.47 -223.25,249.92 -10.19,38.94 15.6,59.62 15.6,59.62"
         style="fill:#562a16;fill-opacity:1;fill-rule:nonzero;stroke:none"
         id="path704"
         inkscape:connector-curvature="0" /><path
         d="m 3614.01,2351.41 88.5117,0 0,1557.86 -88.5117,0 0,-1557.86 z"
         style="fill:#28292a;fill-opacity:1;fill-rule:nonzero;stroke:none"
         id="path706"
         inkscape:connector-curvature="0" /><path
         d="m 2516.38,2351.41 88.5313,0 0,1557.86 -88.5313,0 0,-1557.86 z"
         style="fill:#323335;fill-opacity:1;fill-rule:nonzero;stroke:none"
         id="path708"
         inkscape:connector-curvature="0" /><path
         d="m 3249.79,3292.38 c 0,0 -128.92,-121.92 -134,-265.76 -0.45,-63.81 7.37,-101.97 7.37,-101.97 0,0 24.67,232.68 151.12,335.01 4.64,31.55 -24.49,32.72 -24.49,32.72"
         style="fill:#48bc39;fill-opacity:1;fill-rule:nonzero;stroke:none"
         id="path710"
         inkscape:connector-curvature="0" /><path
         d="m 3009.79,3295.86 c 0,0 83.9,-122.66 82.73,-213.13 12.77,37.11 23.28,84.37 23.28,84.37 0,0 -36.53,101.21 -90.53,153.11 -54.01,51.92 -15.48,-24.35 -15.48,-24.35"
         style="fill:#48bc39;fill-opacity:1;fill-rule:nonzero;stroke:none"
         id="path712"
         inkscape:connector-curvature="0" /><path
         d="m 3539.89,3671.06 c -0.05,0.09 -0.14,0.27 -0.14,0.27 0,0 -147.77,-115.19 -271.83,-188.15 -118.06,-69.45 -34.61,-213.16 -26.24,-226.89 83.28,57.18 177.28,78.7 221.5,134.33 73.72,92.73 68.12,215.39 76.71,280.44"
         style="fill:#48bc39;fill-opacity:1;fill-rule:nonzero;stroke:none"
         id="path714"
         inkscape:connector-curvature="0" /><path
         d="m 3539.89,3671.06 c -13.71,-104.08 -76.07,-262.28 -298.21,-414.77 0.41,-0.69 0.7,-1.16 0.7,-1.16 0,0 240.83,-74.8 322.93,69.32 80.9,142.06 -22.43,340.93 -25.42,346.61"
         style="fill:#3eb83d;fill-opacity:1;fill-rule:nonzero;stroke:none"
         id="path716"
         inkscape:connector-curvature="0" /><path
         d="m 2924.82,3767.53 c 0.07,0.06 0.24,0.2 0.24,0.2 0,0 93.64,-161.66 181.11,-275.45 83.22,-108.27 -47.57,-209.99 -60.41,-219.58 -55.69,83.97 -134.57,138.96 -154.69,206.91 -33.53,113.24 17.4,224.57 33.75,287.92"
         style="fill:#48bc39;fill-opacity:1;fill-rule:nonzero;stroke:none"
         id="path718"
         inkscape:connector-curvature="0" /><path
         d="m 2924.82,3767.53 c -26.16,-101.37 -27.55,-270.9 120.94,-494.83 -0.67,-0.48 -1.1,-0.8 -1.1,-0.8 0,0 -250.6,20.73 -272.7,184.64 -21.8,161.54 147.99,306.85 152.86,310.99"
         style="fill:#3eb83d;fill-opacity:1;fill-rule:nonzero;stroke:none"
         id="path720"
         inkscape:connector-curvature="0" /><path
         d="m 3098.06,2682.3 c -2.04,14.01 -47.63,471.13 62.67,740.02 121.81,297.04 15.14,588.36 14.22,591.66 0,0 143.67,-245.8 17.16,-604.62 -93.5,-265.16 -60.93,-718.86 -60.43,-722.21 l -33.62,-4.85"
         style="fill:#48bc39;fill-opacity:1;fill-rule:nonzero;stroke:none"
         id="path722"
         inkscape:connector-curvature="0" /><path
         d="m 3053.8,4141.89 c -0.11,0.03 -0.34,0.08 -0.34,0.08 0,0 -2.61,-217.96 -26.34,-383.72 -22.58,-157.75 168.64,-186.22 187.17,-188.61 8.51,117.25 57.19,218.31 38.73,298.91 -30.77,134.33 -146.32,218.32 -199.22,273.34"
         style="fill:#48bc39;fill-opacity:1;fill-rule:nonzero;stroke:none"
         id="path724"
         inkscape:connector-curvature="0" /><path
         d="m 3053.8,4141.89 c 84.63,-88.05 183.18,-259.57 160.49,-572.25 0.95,-0.12 1.6,-0.18 1.6,-0.18 0,0 242.82,164.59 171.42,343.87 -70.37,176.7 -326.18,227.15 -333.51,228.56"
         style="fill:#3eb83d;fill-opacity:1;fill-rule:nonzero;stroke:none"
         id="path726"
         inkscape:connector-curvature="0" /><path
         d="m 3099.79,2961.36 c -393.79,0 -713,-259.99 -713,-580.7 0,-4.34 0.07,-8.67 0.17,-12.98 l 721.42,0 245.01,296.84 -245.01,296.76 c -2.87,0.02 -5.74,0.08 -8.59,0.08"
         style="fill:#64341e;fill-opacity:1;fill-rule:nonzero;stroke:none"
         id="path728"
         inkscape:connector-curvature="0" /><path
         d="m 3108.38,2961.32 0,-593.64 704.24,0 c 0.12,4.31 0.18,8.64 0.18,12.98 0,318.39 -314.59,576.91 -704.42,580.66"
         style="fill:#562a16;fill-opacity:1;fill-rule:nonzero;stroke:none"
         id="path730"
         inkscape:connector-curvature="0" /><path
         d="m 3108.23,2499.12 -928.28,0 279.36,-1047.98 c 34.73,-130.27 152.69,-220.93 287.53,-220.93 l 361.39,0 120.56,674.84 -120.56,594.07"
         style="fill:#3b679f;fill-opacity:1;fill-rule:nonzero;stroke:none"
         id="path732"
         inkscape:connector-curvature="0" /><path
         d="m 3108.23,2544 -962.27,0 c -12,0 -21.71,-9.72 -21.71,-21.7 l 0,-46.35 c 0,-11.99 9.71,-21.71 21.71,-21.71 l 962.27,0 79.32,44.88 -79.32,44.88"
         style="fill:#2a5884;fill-opacity:1;fill-rule:nonzero;stroke:none"
         id="path734"
         inkscape:connector-curvature="0" /><path
         d="m 3108.23,2499.12 0,-1268.91 361.43,0 c 134.85,0 252.8,90.66 287.52,220.93 l 279.37,1047.98 -928.32,0"
         style="fill:#305e93;fill-opacity:1;fill-rule:nonzero;stroke:none"
         id="path736"
         inkscape:connector-curvature="0" /><path
         d="m 4070.55,2544 -962.32,0 0,-89.76 962.32,0 c 11.99,0 21.7,9.72 21.7,21.71 l 0,46.35 c 0,11.98 -9.71,21.7 -21.7,21.7"
         style="fill:#2a5684;fill-opacity:1;fill-rule:nonzero;stroke:none"
         id="path738"
         inkscape:connector-curvature="0" /><path
         d="m 3027.5,1448.13 c -68.25,0 -123.5,-55.25 -123.5,-123.49 l 0,-969.761 c 0,-68.285 55.25,-123.57 123.5,-123.57 l 80.73,0 79.32,821.721 -79.32,395.1 -80.73,0"
         style="fill:#323335;fill-opacity:1;fill-rule:nonzero;stroke:none"
         id="path740"
         inkscape:connector-curvature="0" /><path
         d="m 3188.86,1448.13 -80.63,0 0,-1216.821 80.63,0 c 68.27,0 123.62,55.285 123.62,123.57 l 0,969.761 c 0,68.24 -55.35,123.49 -123.62,123.49"
         style="fill:#3d3e40;fill-opacity:1;fill-rule:nonzero;stroke:none"
         id="path742"
         inkscape:connector-curvature="0" /><path
         d="m 3188.86,1448.13 -80.63,0 0,-1216.821 80.63,0 c 68.27,0 123.62,55.285 123.62,123.57 l 0,969.761 c 0,68.24 -55.35,123.49 -123.62,123.49"
         style="fill:#28292a;fill-opacity:1;fill-rule:nonzero;stroke:none"
         id="path744"
         inkscape:connector-curvature="0" /><path
         d="m 2597.9,1078.51 0,191.71 c -31.51,18.23 -59.5,42.12 -82.48,70.52 l 0,-262.23 c 0,-130.916 106.5,-237.44 237.44,-237.44 l 355.37,0 54.97,41.243 -54.97,41.242 -355.37,0 c -85.46,0 -154.96,69.515 -154.96,154.955"
         style="fill:#55636c;fill-opacity:1;fill-rule:nonzero;stroke:none"
         id="path746"
         inkscape:connector-curvature="0" /><path
         d="m 3618.61,1078.51 0,191.71 c 31.5,18.23 59.49,42.12 82.48,70.52 l 0,-262.23 c 0,-130.916 -106.54,-237.44 -237.45,-237.44 l -355.41,0 0,82.485 355.41,0 c 85.44,0 154.97,69.515 154.97,154.955"
         style="fill:#47555d;fill-opacity:1;fill-rule:nonzero;stroke:none"
         id="path748"
         inkscape:connector-curvature="0" /><path
         d="m 4108.79,4260.17 -187.22,77.9 -118.4,-268.5 c -30.12,-47.94 -75.88,-84 -129.55,-102.07 l -76.32,-25.72 c -20.67,-6.96 -33.82,-27.24 -31.73,-48.94 l 9.15,-95.43 c 0.89,-9.25 5.73,-17.66 13.27,-23.08 7.56,-5.41 17.08,-7.3 26.13,-5.17 l 0,61.99 c 0,25.92 21,46.93 46.93,46.93 l 0.9,0 c 21.9,0 39.65,-17.75 39.65,-39.65 l 0,-306.13 c 0,0 73.62,105.07 94.47,132.71 l 87.42,138.6 c 14.73,19.49 21.55,50.15 19.13,74.44 0,0 36.04,90.48 70.33,133 l 135.84,249.12"
         style="fill:#f9ae78;fill-opacity:1;fill-rule:nonzero;stroke:none"
         id="path750"
         inkscape:connector-curvature="0" /><path
         d="m 4230.48,4432 165.43,347.38 c 16.18,34.05 18.18,73.11 5.44,108.66 -12.55,35.57 -38.86,64.57 -72.99,80.77 l -1.41,0.59 c -35.13,16.67 -75.43,18.32 -111.81,4.8 -36.31,-13.6 -69.39,-42.43 -85.05,-77.89 l -235.28,-541.1 243.96,-115.82 91.71,192.61"
         style="fill:#f1f1f1;fill-opacity:1;fill-rule:nonzero;stroke:none"
         id="path752"
         inkscape:connector-curvature="0" /><path
         d="m 4205.4,4872.2 c -15.69,-33.18 -1.58,-72.76 31.57,-88.36 33.17,-15.74 72.84,-1.61 88.55,31.57 15.62,33.13 1.52,72.71 -31.76,88.47 -33.08,15.65 -72.73,1.48 -88.36,-31.68"
         style="fill:#f1f1f1;fill-opacity:1;fill-rule:nonzero;stroke:none"
         id="path754"
         inkscape:connector-curvature="0" /><path
         d="m 4235.08,4382.98 c 0.71,1.41 0.59,3.11 -0.13,4.54 -0.79,1.43 -2.11,2.44 -3.7,2.66 l -303.15,51.46 c -9.19,1.55 -18.3,-3.26 -22.22,-11.79 l -28.33,-61.88 c -4.81,-10.39 -0.18,-22.68 10.2,-27.45 l 252.19,-115.49 c 5.07,-2.29 10.72,-2.51 15.86,-0.6 5.13,1.98 9.3,5.79 11.56,10.77 l 67.72,147.78"
         style="fill:#e6e6e6;fill-opacity:1;fill-rule:nonzero;stroke:none"
         id="path756"
         inkscape:connector-curvature="0" /><path
         d="m 2111.3,4266.5 186.81,77.91 118.1,-268.49 c 30.05,-47.94 75.7,-84 129.24,-102.07 l 76.15,-25.72 c 20.6,-6.97 33.72,-27.24 31.65,-48.95 l -9.13,-95.43 c -0.87,-9.25 -5.7,-17.67 -13.24,-23.07 -7.53,-5.41 -17.05,-7.3 -26.06,-5.17 l 0,61.99 c 0,25.91 -20.95,46.93 -46.81,46.93 l -0.91,0 c -21.85,0 -39.56,-17.76 -39.56,-39.66 l 0,-306.13 c 0,0 -86.11,98.73 -106.91,126.37 l -87.22,138.6 c -14.68,19.49 -21.5,50.15 -19.07,74.44 0,0 -23.3,96.83 -57.52,139.34 L 2111.3,4266.5"
         style="fill:#f9ae78;fill-opacity:1;fill-rule:nonzero;stroke:none"
         id="path758"
         inkscape:connector-curvature="0" /><path
         d="m 1989.9,4438.35 -165.02,347.38 c -16.15,34.04 -18.16,73.1 -5.45,108.65 12.52,35.58 38.79,64.58 72.82,80.76 l 1.43,0.61 c 35.02,16.67 75.22,18.32 111.53,4.79 36.22,-13.6 69.22,-42.42 84.86,-77.9 l 234.72,-541.08 -243.38,-115.82 -91.51,192.61"
         style="fill:#f1f1f1;fill-opacity:1;fill-rule:nonzero;stroke:none"
         id="path760"
         inkscape:connector-curvature="0" /><path
         d="m 1985.32,4389.33 c -0.7,1.4 -0.59,3.09 0.13,4.54 0.77,1.43 2.11,2.43 3.69,2.64 l 302.44,51.47 c 9.15,1.56 18.24,-3.25 22.16,-11.78 l 28.27,-61.89 c 4.78,-10.38 0.17,-22.68 -10.17,-27.44 l -251.61,-115.49 c -5.04,-2.29 -10.69,-2.51 -15.81,-0.6 -5.12,1.97 -9.27,5.79 -11.54,10.76 l -67.56,147.79"
         style="fill:#e6e6e6;fill-opacity:1;fill-rule:nonzero;stroke:none"
         id="path764"
         inkscape:connector-curvature="0" /></g></g></svg>