<?xml version="1.0" encoding="UTF-8" standalone="no"?>
<!-- Created with Inkscape (http://www.inkscape.org/) -->

<svg
   xmlns:dc="http://purl.org/dc/elements/1.1/"
   xmlns:cc="http://creativecommons.org/ns#"
   xmlns:rdf="http://www.w3.org/1999/02/22-rdf-syntax-ns#"
   xmlns:svg="http://www.w3.org/2000/svg"
   xmlns="http://www.w3.org/2000/svg"
   xmlns:sodipodi="http://sodipodi.sourceforge.net/DTD/sodipodi-0.dtd"
   xmlns:inkscape="http://www.inkscape.org/namespaces/inkscape"
   id="svg2"
   version="1.1"
   inkscape:version="0.91 r13725"
   xml:space="preserve"
   width="2.794806in"
   height="4.1350632in"
   viewBox="0 0 251.53254 372.15569"
   sodipodi:docname="batch_logo.svg"><metadata
     id="metadata8"><rdf:RDF><cc:Work
         rdf:about=""><dc:format>image/svg+xml</dc:format><dc:type
           rdf:resource="http://purl.org/dc/dcmitype/StillImage" /><dc:title></dc:title></cc:Work></rdf:RDF></metadata><defs
     id="defs6" /><sodipodi:namedview
     pagecolor="#ffffff"
     bordercolor="#666666"
     borderopacity="1"
     objecttolerance="10"
     gridtolerance="10"
     guidetolerance="10"
     inkscape:pageopacity="0"
     inkscape:pageshadow="2"
     inkscape:window-width="1916"
     inkscape:window-height="1155"
     id="namedview4"
     showgrid="false"
     inkscape:zoom="1.7462307"
     inkscape:cx="179.69517"
     inkscape:cy="173.39615"
     inkscape:window-x="4"
     inkscape:window-y="1"
     inkscape:window-maximized="1"
     inkscape:current-layer="g12"
     units="in"
     fit-margin-top="0"
     fit-margin-left="0"
     fit-margin-right="0"
     fit-margin-bottom="0"><inkscape:grid
       type="xygrid"
       id="grid4195"
       originx="-271.50305"
       originy="-157.2347" /></sodipodi:namedview><g
     id="g10"
     inkscape:groupmode="layer"
     inkscape:label="ink_ext_XXXXXX"
     transform="matrix(1.25,0,0,-1.25,-271.50305,529.39036)"><g
       id="g12"
       transform="scale(0.102249,0.102249)"><path
         d="m 3234.56,4064.48 50.36,-355.34 -38.79,20.6 -11.57,334.74"
         style="fill:#f79319;fill-opacity:1;fill-rule:nonzero;stroke:none"
         id="path432"
         inkscape:connector-curvature="0" /><path
         d="m 2640.76,1611.41 955.56,0 103.17,145.72 -103.17,189.53 c -477.21,0 -874.02,-144.64 -955.56,-335.25"
         style="fill:#64341e;fill-opacity:1;fill-rule:nonzero;stroke:none"
         id="path488"
         inkscape:connector-curvature="0" /><path
         d="m 3451.79,2006.67 c 0.51,0.19 0.87,0.65 0.87,1.21 0,0.52 -0.36,1 -0.87,1.19 l -7.48,2.9 c -0.51,0.17 -0.83,0.65 -0.83,1.17 0,0.52 0.25,0.98 0.74,1.24 l 6.66,3.02 c 0.56,0.25 0.85,0.83 0.74,1.47 -0.17,0.59 -0.68,1.03 -1.28,1.03 l -160.65,0 c -0.53,0 -0.97,-0.37 -1.19,-0.83 -0.18,-0.52 -0.06,-1.09 0.33,-1.44 l 2.15,-1.98 c 0.38,-0.36 0.48,-0.86 0.38,-1.34 -0.18,-0.5 -0.57,-0.88 -1.06,-0.94 l -12.36,-1.84 c -0.6,-0.13 -1.11,-0.66 -1.11,-1.29 0,-0.67 0.51,-1.23 1.17,-1.29 l 5.5,-0.74 c 0.47,-0.05 0.9,-0.43 1.05,-0.91 0.15,-0.51 -0.01,-1.03 -0.38,-1.37 l -3.85,-3.26 c -0.42,-0.34 -0.56,-0.93 -0.38,-1.41 0.19,-0.53 0.64,-0.88 1.2,-0.88 l 165.02,0 c 0.54,0 0.96,0.44 1.05,0.96 0.06,0.57 -0.27,1.09 -0.8,1.21 -0.48,0.12 -0.81,0.54 -0.85,0.98 -0.04,0.48 0.26,0.92 0.74,1.11 l 5.49,2.03"
         style="fill:#f8a36d;fill-opacity:1;fill-rule:nonzero;stroke:none"
         id="path588"
         inkscape:connector-curvature="0" /><path
         d="m 3438.69,1844.05 c 0.54,0.15 0.88,0.65 0.88,1.18 0,0.57 -0.3,1.05 -0.86,1.23 l -7.46,2.87 c -0.54,0.21 -0.87,0.65 -0.87,1.21 0,0.48 0.32,0.98 0.78,1.19 l 6.65,3.05 c 0.53,0.25 0.88,0.85 0.69,1.49 -0.12,0.57 -0.63,0.99 -1.24,0.99 l -160.63,0 c -0.54,0 -1.02,-0.33 -1.2,-0.81 -0.21,-0.5 -0.09,-1.09 0.29,-1.42 l 2.18,-2 c 0.37,-0.33 0.55,-0.87 0.37,-1.32 -0.14,-0.5 -0.58,-0.87 -1.07,-0.94 l -12.29,-1.88 c -0.68,-0.08 -1.15,-0.62 -1.15,-1.27 0,-0.65 0.52,-1.21 1.15,-1.3 l 5.47,-0.71 c 0.54,-0.07 0.96,-0.44 1.1,-0.91 0.11,-0.51 0,-1.07 -0.38,-1.36 l -3.85,-3.27 c -0.43,-0.37 -0.55,-0.93 -0.4,-1.45 0.2,-0.53 0.69,-0.84 1.22,-0.84 l 164.97,0 c 0.53,0 1.06,0.42 1.08,0.94 0.09,0.54 -0.25,1.07 -0.81,1.24 -0.44,0.08 -0.82,0.51 -0.85,0.97 0,0.48 0.29,0.93 0.76,1.11 l 5.47,2.01"
         style="fill:#f8a36d;fill-opacity:1;fill-rule:nonzero;stroke:none"
         id="path590"
         inkscape:connector-curvature="0" /><path
         d="m 3434.7,1715.06 c 0.49,0.18 0.85,0.63 0.85,1.14 0,0.53 -0.36,0.99 -0.85,1.19 l -7.14,2.73 c -0.47,0.18 -0.79,0.62 -0.79,1.1 -0.02,0.5 0.3,0.99 0.72,1.17 l 6.33,2.93 c 0.54,0.2 0.85,0.79 0.73,1.38 -0.19,0.56 -0.66,1 -1.24,1 l -121.74,0 c -0.51,0 -0.93,-0.32 -1.17,-0.82 -0.13,-0.49 -0.02,-1.04 0.33,-1.36 l 2.02,-1.89 c 0.4,-0.34 0.52,-0.81 0.4,-1.3 -0.17,-0.42 -0.55,-0.79 -1.02,-0.85 l -11.79,-1.8 c -0.59,-0.08 -1.04,-0.61 -1.04,-1.23 0,-0.61 0.47,-1.13 1.11,-1.22 l 5.19,-0.68 c 0.53,-0.07 0.9,-0.39 1.05,-0.86 0.14,-0.5 -0.03,-0.98 -0.39,-1.3 l -3.64,-3.12 c -0.4,-0.32 -0.53,-0.88 -0.38,-1.36 0.22,-0.51 0.63,-0.82 1.16,-0.82 l 125.92,0 c 0.5,0 0.94,0.37 1.04,0.91 0.02,0.51 -0.29,1.01 -0.8,1.14 -0.48,0.13 -0.79,0.53 -0.79,0.94 -0.01,0.47 0.27,0.9 0.68,1.06 l 5.25,1.92"
         style="fill:#f8a36d;fill-opacity:1;fill-rule:nonzero;stroke:none"
         id="path592"
         inkscape:connector-curvature="0" /><path
         d="m 2924.85,2706.85 c 0.56,0.19 0.9,0.69 0.9,1.29 0,0.57 -0.34,1.05 -0.9,1.24 l -7.74,2.99 c -0.54,0.22 -0.87,0.7 -0.87,1.23 0,0.52 0.31,1.01 0.8,1.27 l 6.89,3.16 c 0.56,0.28 0.87,0.89 0.73,1.51 -0.13,0.61 -0.66,1.05 -1.3,1.05 l -122,0 c -0.59,0 -1.1,-0.33 -1.32,-0.83 -0.18,-0.53 -0.06,-1.15 0.39,-1.49 l 2.2,-2.08 c 0.39,-0.34 0.54,-0.9 0.39,-1.38 -0.11,-0.51 -0.56,-0.88 -1.09,-0.95 l -12.83,-1.95 c -0.63,-0.09 -1.12,-0.67 -1.12,-1.36 0,-0.67 0.49,-1.23 1.17,-1.3 l 5.69,-0.76 c 0.52,-0.04 0.99,-0.43 1.18,-0.95 0.08,-0.5 -0.06,-1.04 -0.48,-1.42 l -4,-3.38 c -0.43,-0.34 -0.55,-0.97 -0.35,-1.49 0.19,-0.52 0.67,-0.86 1.26,-0.86 l 126.56,0 c 0.56,0 1.03,0.45 1.1,0.99 0.08,0.56 -0.29,1.11 -0.86,1.23 -0.47,0.13 -0.82,0.56 -0.86,1.04 0,0.51 0.31,0.97 0.74,1.15 l 5.72,2.05"
         style="fill:#f9ae78;fill-opacity:1;fill-rule:nonzero;stroke:none"
         id="path596"
         inkscape:connector-curvature="0" /><path
         d="m 3485.81,2805.77 c 0.51,0.18 0.9,0.66 0.9,1.23 0,0.54 -0.39,1.06 -0.87,1.29 l -7.82,2.94 c -0.5,0.19 -0.84,0.7 -0.84,1.23 -0.02,0.57 0.3,1.05 0.78,1.29 l 6.9,3.14 c 0.62,0.26 0.89,0.88 0.76,1.53 -0.14,0.65 -0.7,1.06 -1.32,1.06 l -185.08,0 c -0.53,0 -1.04,-0.37 -1.21,-0.85 -0.22,-0.53 -0.08,-1.11 0.31,-1.48 l 2.26,-2.1 c 0.38,-0.37 0.49,-0.89 0.38,-1.35 -0.19,-0.52 -0.62,-0.9 -1.1,-0.96 l -12.81,-1.93 c -0.67,-0.11 -1.17,-0.68 -1.17,-1.35 0,-0.69 0.54,-1.23 1.21,-1.36 l 5.67,-0.73 c 0.56,-0.06 1,-0.43 1.14,-0.94 0.15,-0.55 -0.02,-1.11 -0.45,-1.4 l -3.95,-3.4 c -0.4,-0.35 -0.6,-0.98 -0.4,-1.5 0.19,-0.53 0.72,-0.9 1.26,-0.9 l 189.57,0 c 0.61,0 1.07,0.44 1.14,1 0.05,0.59 -0.28,1.11 -0.85,1.25 -0.47,0.13 -0.85,0.57 -0.87,1.05 -0.04,0.52 0.26,0.95 0.75,1.14 l 5.71,2.1"
         style="fill:#f8a36d;fill-opacity:1;fill-rule:nonzero;stroke:none"
         id="path598"
         inkscape:connector-curvature="0" /><path
         d="m 3473.09,2431.39 c 0.43,0.37 0.64,0.91 0.55,1.49 -0.06,0.51 -0.33,0.99 -0.85,1.28 l -17.84,10.53 c -0.5,0.29 -0.84,0.86 -0.85,1.45 0,0.64 0.28,1.18 0.78,1.49 l 14.95,9.67 c 0.66,0.42 0.97,1.24 0.75,1.96 -0.24,0.78 -0.92,1.3 -1.71,1.3 l -176.29,0 c -0.73,0 -1.4,-0.46 -1.67,-1.12 -0.23,-0.66 -0.06,-1.47 0.45,-1.95 l 9.93,-9.06 c 0.48,-0.42 0.65,-1.11 0.48,-1.76 -0.21,-0.65 -0.7,-1.12 -1.36,-1.25 l -24.8,-4.99 c -0.68,-0.18 -1.22,-0.73 -1.34,-1.41 -0.14,-0.7 0.16,-1.41 0.78,-1.81 l 10.4,-6.54 c 0.52,-0.33 0.85,-0.96 0.82,-1.56 0,-0.62 -0.39,-1.16 -0.95,-1.48 l -15.66,-7.93 c -0.52,-0.25 -0.87,-0.74 -0.95,-1.32 -0.08,-0.59 0.12,-1.15 0.53,-1.55 l 14.12,-12.65 c 0.39,-0.33 0.53,-0.79 0.53,-1.32 0,-0.5 -0.14,-0.95 -0.57,-1.33 l -17.38,-15.36 c -0.55,-0.46 -0.74,-1.18 -0.53,-1.83 0.22,-0.65 0.8,-1.14 1.5,-1.21 l 15.98,-1.63 c 0.77,-0.08 1.39,-0.65 1.56,-1.42 0.12,-0.77 -0.23,-1.53 -0.94,-1.88 l -17.89,-9.06 c -0.56,-0.29 -0.95,-0.84 -0.96,-1.46 -0.09,-0.61 0.25,-1.23 0.75,-1.57 l 7.44,-4.95 c 0.47,-0.31 0.72,-0.78 0.79,-1.36 0.02,-0.51 -0.19,-1.03 -0.58,-1.41 l -6.68,-5.93 c -0.54,-0.47 -0.75,-1.26 -0.5,-1.94 0.28,-0.67 0.92,-1.11 1.66,-1.11 l 186.12,0 c 0.68,0 1.29,0.37 1.59,0.98 0.28,0.59 0.2,1.29 -0.19,1.86 l -4.8,6.14 c -0.43,0.5 -0.48,1.23 -0.2,1.86 0.32,0.58 0.88,0.98 1.56,0.98 l 8.15,0 c 0.58,0 1.15,0.31 1.48,0.8 0.35,0.49 0.35,1.09 0.14,1.67 l -4.97,10.91 c -0.31,0.65 -0.18,1.38 0.28,1.88 l 9.89,10.98 c 0.27,0.33 0.45,0.8 0.4,1.26 0,0.5 -0.22,0.93 -0.55,1.23 l -11.35,10.17 c -0.4,0.35 -0.64,0.92 -0.58,1.47 0.07,0.55 0.37,1.05 0.87,1.28 l 14.01,8.45 c 0.7,0.43 0.99,1.22 0.82,1.99 -0.26,0.77 -0.93,1.25 -1.71,1.25 l -8.93,0 c -0.73,0 -1.37,0.47 -1.62,1.11 -0.27,0.7 -0.1,1.47 0.43,1.95 l 14.71,13.76"
         style="fill:#f8a36d;fill-opacity:1;fill-rule:nonzero;stroke:none"
         id="path600"
         inkscape:connector-curvature="0" /><path
         d="m 2949.1,2439.7 c -0.55,0.06 -1.05,0.48 -1.16,1.07 -0.14,0.58 0.17,1.17 0.74,1.45 l 13.71,6.96 c 0.45,0.2 0.74,0.64 0.74,1.1 0.08,0.48 -0.17,0.97 -0.6,1.24 l -5.66,3.82 c -0.39,0.2 -0.59,0.61 -0.63,1 0,0.39 0.12,0.84 0.45,1.09 l 5.15,4.57 c 0.43,0.37 0.55,0.96 0.37,1.54 -0.22,0.46 -0.72,0.84 -1.28,0.84 l -143.05,0 c -0.49,0 -0.98,-0.31 -1.22,-0.78 -0.21,-0.46 -0.19,-1.01 0.16,-1.42 l 3.69,-4.75 c 0.33,-0.38 0.39,-0.92 0.14,-1.43 -0.22,-0.43 -0.67,-0.72 -1.23,-0.72 l -6.24,0 c -0.45,0 -0.9,-0.26 -1.14,-0.64 -0.23,-0.37 -0.24,-0.85 -0.04,-1.29 l 3.79,-8.37 c 0.21,-0.48 0.13,-1.05 -0.24,-1.46 l -10.56,-20.93 c -0.27,-0.24 -0.39,-0.61 -0.39,-0.95 0.06,-0.34 0.19,-0.71 0.45,-0.96 l 11.85,-29.55 c 0.39,-0.23 0.63,-0.67 0.65,-1.13 0.05,-0.46 -0.21,-0.89 -0.6,-1.15 l -11.5,-7.43 c -0.46,-0.31 -0.73,-0.95 -0.55,-1.53 0.15,-0.58 0.67,-0.93 1.3,-0.93 l 135.48,0 c 0.59,0 1.08,0.31 1.29,0.84 0.17,0.52 0.03,1.11 -0.34,1.49 l -7.6,6.96 c -0.39,0.33 -0.5,0.86 -0.39,1.36 0.14,0.48 0.52,0.85 1,0.94 l 19.06,3.86 c 0.56,0.09 1.01,0.54 1.03,1.1 0.14,0.52 -0.1,1.05 -0.58,1.34 l -7.98,5.06 c -0.4,0.24 -0.66,0.68 -0.66,1.16 0.05,0.51 0.33,0.92 0.74,1.18 l 12.04,6.09 c 0.43,0.2 0.67,0.57 0.71,1.03 0.06,0.42 -0.05,0.87 -0.43,1.16 l -10.47,27.17"
         style="fill:#f8a36d;fill-opacity:1;fill-rule:nonzero;stroke:none"
         id="path602"
         inkscape:connector-curvature="0" /><path
         d="m 3249.79,3292.38 c 0,0 -128.92,-121.92 -134,-265.76 -0.45,-63.81 7.37,-101.97 7.37,-101.97 0,0 24.67,232.68 151.12,335.01 4.64,31.55 -24.49,32.72 -24.49,32.72"
         style="fill:#48bc39;fill-opacity:1;fill-rule:nonzero;stroke:none"
         id="path710"
         inkscape:connector-curvature="0" /><path
         d="m 3009.79,3295.86 c 0,0 83.9,-122.66 82.73,-213.13 12.77,37.11 23.28,84.37 23.28,84.37 0,0 -36.53,101.21 -90.53,153.11 -54.01,51.92 -15.48,-24.35 -15.48,-24.35"
         style="fill:#48bc39;fill-opacity:1;fill-rule:nonzero;stroke:none"
         id="path712"
         inkscape:connector-curvature="0" /><path
         d="m 3539.89,3671.06 c -0.05,0.09 -0.14,0.27 -0.14,0.27 0,0 -147.77,-115.19 -271.83,-188.15 -118.06,-69.45 -34.61,-213.16 -26.24,-226.89 83.28,57.18 177.28,78.7 221.5,134.33 73.72,92.73 68.12,215.39 76.71,280.44"
         style="fill:#48bc39;fill-opacity:1;fill-rule:nonzero;stroke:none"
         id="path714"
         inkscape:connector-curvature="0" /><path
         d="m 3539.89,3671.06 c -13.71,-104.08 -76.07,-262.28 -298.21,-414.77 0.41,-0.69 0.7,-1.16 0.7,-1.16 0,0 240.83,-74.8 322.93,69.32 80.9,142.06 -22.43,340.93 -25.42,346.61"
         style="fill:#3eb83d;fill-opacity:1;fill-rule:nonzero;stroke:none"
         id="path716"
         inkscape:connector-curvature="0" /><path
         d="m 2924.82,3767.53 c 0.07,0.06 0.24,0.2 0.24,0.2 0,0 93.64,-161.66 181.11,-275.45 83.22,-108.27 -47.57,-209.99 -60.41,-219.58 -55.69,83.97 -134.57,138.96 -154.69,206.91 -33.53,113.24 17.4,224.57 33.75,287.92"
         style="fill:#48bc39;fill-opacity:1;fill-rule:nonzero;stroke:none"
         id="path718"
         inkscape:connector-curvature="0" /><path
         d="m 2924.82,3767.53 c -26.16,-101.37 -27.55,-270.9 120.94,-494.83 -0.67,-0.48 -1.1,-0.8 -1.1,-0.8 0,0 -250.6,20.73 -272.7,184.64 -21.8,161.54 147.99,306.85 152.86,310.99"
         style="fill:#3eb83d;fill-opacity:1;fill-rule:nonzero;stroke:none"
         id="path720"
         inkscape:connector-curvature="0" /><path
         d="m 3098.06,2682.3 c -2.04,14.01 -47.63,471.13 62.67,740.02 121.81,297.04 15.14,588.36 14.22,591.66 0,0 143.67,-245.8 17.16,-604.62 -93.5,-265.16 -60.93,-718.86 -60.43,-722.21 l -33.62,-4.85"
         style="fill:#48bc39;fill-opacity:1;fill-rule:nonzero;stroke:none"
         id="path722"
         inkscape:connector-curvature="0" /><path
         d="m 3053.8,4141.89 c -0.11,0.03 -0.34,0.08 -0.34,0.08 0,0 -2.61,-217.96 -26.34,-383.72 -22.58,-157.75 168.64,-186.22 187.17,-188.61 8.51,117.25 57.19,218.31 38.73,298.91 -30.77,134.33 -146.32,218.32 -199.22,273.34"
         style="fill:#48bc39;fill-opacity:1;fill-rule:nonzero;stroke:none"
         id="path724"
         inkscape:connector-curvature="0" /><path
         d="m 3053.8,4141.89 c 84.63,-88.05 183.18,-259.57 160.49,-572.25 0.95,-0.12 1.6,-0.18 1.6,-0.18 0,0 242.82,164.59 171.42,343.87 -70.37,176.7 -326.18,227.15 -333.51,228.56"
         style="fill:#3eb83d;fill-opacity:1;fill-rule:nonzero;stroke:none"
         id="path726"
         inkscape:connector-curvature="0" /><path
         d="m 3099.79,2961.36 c -393.79,0 -713,-259.99 -713,-580.7 0,-4.34 0.07,-8.67 0.17,-12.98 l 721.42,0 245.01,296.84 -245.01,296.76 c -2.87,0.02 -5.74,0.08 -8.59,0.08"
         style="fill:#64341e;fill-opacity:1;fill-rule:nonzero;stroke:none"
         id="path728"
         inkscape:connector-curvature="0" /><path
         d="m 3108.38,2961.32 0,-593.64 704.24,0 c 0.12,4.31 0.18,8.64 0.18,12.98 0,318.39 -314.59,576.91 -704.42,580.66"
         style="fill:#562a16;fill-opacity:1;fill-rule:nonzero;stroke:none"
         id="path730"
         inkscape:connector-curvature="0" /><path
         d="m 3108.23,2499.12 -928.28,0 279.36,-1047.98 c 34.73,-130.27 152.69,-220.93 287.53,-220.93 l 361.39,0 120.56,674.84 -120.56,594.07"
         style="fill:#3b679f;fill-opacity:1;fill-rule:nonzero;stroke:none"
         id="path732"
         inkscape:connector-curvature="0" /><path
         d="m 3108.23,2544 -962.27,0 c -12,0 -21.71,-9.72 -21.71,-21.7 l 0,-46.35 c 0,-11.99 9.71,-21.71 21.71,-21.71 l 962.27,0 79.32,44.88 -79.32,44.88"
         style="fill:#2a5884;fill-opacity:1;fill-rule:nonzero;stroke:none"
         id="path734"
         inkscape:connector-curvature="0" /><path
         d="m 3108.23,2499.12 0,-1268.91 361.43,0 c 134.85,0 252.8,90.66 287.52,220.93 l 279.37,1047.98 -928.32,0"
         style="fill:#305e93;fill-opacity:1;fill-rule:nonzero;stroke:none"
         id="path736"
         inkscape:connector-curvature="0" /><path
         d="m 4070.55,2544 -962.32,0 0,-89.76 962.32,0 c 11.99,0 21.7,9.72 21.7,21.71 l 0,46.35 c 0,11.98 -9.71,21.7 -21.7,21.7"
         style="fill:#2a5684;fill-opacity:1;fill-rule:nonzero;stroke:none"
         id="path738"
         inkscape:connector-curvature="0" /></g></g></svg>